<svg width="32" height="32" viewBox="0 0 32 32" fill="none" xmlns="http://www.w3.org/2000/svg">
<g clip-path="url(#clip0_58_2817)">
<path d="M28 0C27.2636 0 26.6667 0.596953 26.6667 1.33333V2.66667H25.3333C24.5969 2.66667 24 3.26363 24 4C24 4.73637 24.5969 5.33333 25.3333 5.33333H26.6667V6.66667C26.6667 7.40304 27.2636 8 28 8C28.7364 8 29.3333 7.40304 29.3333 6.66667V5.33333H30.6667C31.4031 5.33333 32 4.73637 32 4C32 3.26363 31.4031 2.66667 30.6667 2.66667H29.3333V1.33333C29.3333 0.596953 28.7364 0 28 0Z" fill="#0F0F0F"/>
<path d="M29.9558 11.4892C29.7293 10.7886 28.9354 10.4771 28.2581 10.7662C27.5809 11.0554 27.2699 11.8393 27.4821 12.5444C28.1506 14.7654 28.1631 17.143 27.5027 19.3863C26.7163 22.0578 25.0245 24.3723 22.7177 25.9324C20.4109 27.4927 17.633 28.2012 14.8606 27.9367C12.0884 27.672 9.49463 26.4508 7.52461 24.4824C5.55458 22.514 4.33113 19.9212 4.06425 17.1492C3.79735 14.3771 4.50367 11.5986 6.06195 9.2905C7.62025 6.98241 9.93334 5.28867 12.6042 4.50002C14.847 3.83778 17.2246 3.84839 19.4461 4.51502C20.1514 4.72666 20.935 4.41501 21.2237 3.73753C21.5122 3.06006 21.2001 2.26643 20.4993 2.04053C17.7013 1.13866 14.6855 1.09547 11.8465 1.93378C8.57958 2.89843 5.75031 4.97011 3.8443 7.79326C1.93827 10.6164 1.07434 14.015 1.40078 17.4056C1.72723 20.7963 3.22369 23.9676 5.63333 26.3752C8.04297 28.7828 11.2155 30.2767 14.6065 30.6003C17.9974 30.924 21.3951 30.0572 24.2167 28.149C27.0383 26.2406 29.1077 23.4096 30.0697 20.1419C30.9055 17.3022 30.8599 14.2864 29.9558 11.4892Z" fill="#0F0F0F"/>
<path fill-rule="evenodd" clip-rule="evenodd" d="M12 11.9999C12 10.5272 13.1939 9.33325 14.6667 9.33325H18.6667C19.4031 9.33325 20 9.93021 20 10.6666C20 11.403 19.4031 11.9999 18.6667 11.9999H14.9333C14.786 11.9999 14.6667 12.1193 14.6667 12.2666V14.3999C14.6667 14.5473 14.786 14.6666 14.9333 14.6666H17.3333C18.8061 14.6666 20 15.8605 20 17.3333V19.9999C20 21.4727 18.8061 22.6666 17.3333 22.6666H14.6667C13.1939 22.6666 12 21.4727 12 19.9999V11.9999ZM14.6667 18.6666C14.6667 19.403 15.2636 19.9999 16 19.9999C16.7364 19.9999 17.3333 19.403 17.3333 18.6666C17.3333 17.9302 16.7364 17.3333 16 17.3333C15.2636 17.3333 14.6667 17.9302 14.6667 18.6666Z" fill="#0F0F0F"/>
</g>
<defs>
<clipPath id="clip0_58_2817">
<rect width="32" height="32" fill="white"/>
</clipPath>
</defs>
</svg>
