<svg width="32" height="32" viewBox="0 0 32 32" fill="none" xmlns="http://www.w3.org/2000/svg">
<g clip-path="url(#clip0_48_668)">
<path d="M26.6667 1.33333C26.6667 0.596953 27.2636 0 28 0C28.7364 0 29.3333 0.596953 29.3333 1.33333V2.66667H30.6667C31.4031 2.66667 32 3.26363 32 4C32 4.73637 31.4031 5.33333 30.6667 5.33333H29.3333V6.66667C29.3333 7.40304 28.7364 8 28 8C27.2636 8 26.6667 7.40304 26.6667 6.66667V5.33333H25.3333C24.5969 5.33333 24 4.73637 24 4C24 3.26363 24.5969 2.66667 25.3333 2.66667H26.6667V1.33333Z" fill="#0F0F0F"/>
<path d="M28.2581 10.7662C28.9354 10.4771 29.7293 10.7886 29.9557 11.4892C30.86 14.2864 30.9056 17.3022 30.0697 20.1419C29.1077 23.4096 27.0384 26.2406 24.2168 28.149C21.3952 30.0572 17.9973 30.924 14.6064 30.6003C11.2155 30.2767 8.04296 28.7828 5.63333 26.3752C3.22369 23.9676 1.72722 20.7963 1.40078 17.4056C1.07433 14.015 1.93826 10.6164 3.84429 7.79326C5.75032 4.97011 8.57957 2.89843 11.8465 1.93378C14.6856 1.09547 17.7012 1.13866 20.4992 2.04053C21.2001 2.26643 21.5122 3.06006 21.2237 3.73753C20.935 4.41501 20.1514 4.72666 19.4461 4.51502C17.2245 3.84839 14.847 3.83778 12.6042 4.50002C9.93334 5.28867 7.62025 6.98241 6.06196 9.2905C4.50366 11.5986 3.79734 14.3771 4.06424 17.1492C4.33113 19.9212 5.55457 22.514 7.5246 24.4824C9.49462 26.4508 12.0884 27.672 14.8606 27.9367C17.6329 28.2012 20.4109 27.4927 22.7177 25.9324C25.0245 24.3723 26.7164 22.0578 27.5028 19.3863C28.1632 17.143 28.1506 14.7654 27.4821 12.5444C27.27 11.8393 27.5809 11.0554 28.2581 10.7662Z" fill="#0F0F0F"/>
<path d="M10.2807 12.193L9.72589 12.4704C8.93296 12.8669 8 12.2903 8 11.4038C8 10.952 8.25521 10.5391 8.65923 10.3371L10.3851 9.47413C10.5703 9.38157 10.7744 9.33337 10.9814 9.33337H12C12.7364 9.33337 13.3333 9.93033 13.3333 10.6667V21.3334C13.3333 22.0698 12.7364 22.6667 12 22.6667C11.2636 22.6667 10.6667 22.0698 10.6667 21.3334V12.4315C10.6667 12.2333 10.458 12.1043 10.2807 12.193Z" fill="#0F0F0F"/>
<path fill-rule="evenodd" clip-rule="evenodd" d="M16 12C16 10.5273 17.1939 9.33337 18.6667 9.33337H22.6667C23.4031 9.33337 24 9.93033 24 10.6667C24 11.4031 23.4031 12 22.6667 12H18.9333C18.786 12 18.6667 12.1194 18.6667 12.2667V14.4C18.6667 14.5474 18.786 14.6667 18.9333 14.6667H21.3333C22.8061 14.6667 24 15.8606 24 17.3334V20C24 21.4728 22.8061 22.6667 21.3333 22.6667H18.6667C17.1939 22.6667 16 21.4728 16 20V12ZM18.6667 18.6667C18.6667 19.4031 19.2636 20 20 20C20.7364 20 21.3333 19.4031 21.3333 18.6667C21.3333 17.9303 20.7364 17.3334 20 17.3334C19.2636 17.3334 18.6667 17.9303 18.6667 18.6667Z" fill="#0F0F0F"/>
</g>
<defs>
<clipPath id="clip0_48_668">
<rect width="32" height="32" fill="white"/>
</clipPath>
</defs>
</svg>
