<svg width="32" height="32" viewBox="0 0 32 32" fill="none" xmlns="http://www.w3.org/2000/svg">
<path d="M16 31C24.2843 31 31 24.2843 31 16C31 7.71573 24.2843 1 16 1C7.71573 1 1 7.71573 1 16C1 24.2843 7.71573 31 16 31Z" fill="#F85565"/>
<path opacity="0.2" d="M16 28C22.6274 28 28 22.6274 28 16C28 9.37258 22.6274 4 16 4C9.37258 4 4 9.37258 4 16C4 22.6274 9.37258 28 16 28Z" fill="white"/>
<path d="M22.25 12.8375L25.415 16.5425C25.4933 16.6948 25.5313 16.8647 25.5251 17.0359C25.519 17.2071 25.469 17.3738 25.3799 17.5201C25.2908 17.6664 25.1656 17.7874 25.0164 17.8714C24.8671 17.9554 24.6988 17.9997 24.5275 18H18.9175L17.9175 12.25L22.25 12.8375Z" fill="#4BC190"/>
<path opacity="0.3" d="M22.25 12.8375L25.415 16.5425C25.4933 16.6948 25.5313 16.8647 25.5251 17.0359C25.519 17.2071 25.469 17.3738 25.3799 17.5201C25.2908 17.6664 25.1656 17.7874 25.0164 17.8714C24.8671 17.9554 24.6988 17.9997 24.5275 18H18.9175L17.9175 12.25L22.25 12.8375Z" fill="#356CB6"/>
<path d="M22.46 19.5925C23.4955 19.5925 24.335 18.7531 24.335 17.7175C24.335 16.682 23.4955 15.8425 22.46 15.8425C21.4244 15.8425 20.585 16.682 20.585 17.7175C20.585 18.7531 21.4244 19.5925 22.46 19.5925Z" fill="#FBC0AA"/>
<path d="M16 31C19.4127 31.0041 22.7238 29.8395 25.3825 27.7L24.8825 26.3175C24.5 25.375 23.42 24.75 22.2225 24.75H9.77754C8.58004 24.75 7.51004 25.3775 7.10754 26.32L6.60754 27.7025C9.26927 29.8432 12.5843 31.0071 16 31Z" fill="#356CB6"/>
<path d="M18.5651 25.4649C18.5651 26.8799 17.4151 27.7774 16.0001 27.7774C14.5851 27.7774 13.4351 26.8799 13.4351 25.4649C13.4351 24.0499 14.5851 24.6099 16.0001 24.6099C17.4151 24.6099 18.5651 24.0474 18.5651 25.4649Z" fill="white"/>
<path d="M16 22.22V25.22" stroke="#FBC0AA" stroke-width="3.5" stroke-linecap="round" stroke-linejoin="round"/>
<path d="M9.54004 19.5925C10.5756 19.5925 11.415 18.7531 11.415 17.7175C11.415 16.682 10.5756 15.8425 9.54004 15.8425C8.50451 15.8425 7.66504 16.682 7.66504 17.7175C7.66504 18.7531 8.50451 19.5925 9.54004 19.5925Z" fill="#FBC0AA"/>
<path d="M16 24.4999C15.12 24.5003 14.2485 24.3271 13.4354 23.9903C12.6224 23.6535 11.8837 23.1598 11.2616 22.5373C10.6396 21.9147 10.1464 21.1757 9.81021 20.3624C9.47404 19.5491 9.30151 18.6775 9.30249 17.7974V15.3924C9.30249 13.6162 10.0081 11.9126 11.2641 10.6566C12.5202 9.40057 14.2237 8.69495 16 8.69495C17.7763 8.69495 19.4798 9.40057 20.7358 10.6566C21.9919 11.9126 22.6975 13.6162 22.6975 15.3924V17.7974C22.6985 18.6775 22.526 19.5491 22.1898 20.3624C21.8536 21.1757 21.3604 21.9147 20.7383 22.5373C20.1163 23.1598 19.3776 23.6535 18.5646 23.9903C17.7515 24.3271 16.88 24.5003 16 24.4999Z" fill="#FFD8C9"/>
<path d="M16 7.84497C16.5523 7.84497 17 7.39726 17 6.84497C17 6.29269 16.5523 5.84497 16 5.84497C15.4477 5.84497 15 6.29269 15 6.84497C15 7.39726 15.4477 7.84497 16 7.84497Z" fill="#4BC190"/>
<path opacity="0.3" d="M16 7.84497C16.5523 7.84497 17 7.39726 17 6.84497C17 6.29269 16.5523 5.84497 16 5.84497C15.4477 5.84497 15 6.29269 15 6.84497C15 7.39726 15.4477 7.84497 16 7.84497Z" fill="#356CB6"/>
<path opacity="0.4" d="M18.53 16.2099L20.8025 16.1499" stroke="#515570" stroke-width="0.4725" stroke-linecap="round" stroke-linejoin="round"/>
<path opacity="0.4" d="M13.47 16.2099L11.1975 16.1499" stroke="#515570" stroke-width="0.4725" stroke-linecap="round" stroke-linejoin="round"/>
<path d="M16 17.5V18.75L16.59 19.7575H15.4075" stroke="#FBC0AA" stroke-width="0.75" stroke-linecap="round" stroke-linejoin="round"/>
<path opacity="0.1" d="M12.7875 20.3851C13.3867 20.3851 13.8725 20.0695 13.8725 19.6801C13.8725 19.2907 13.3867 18.9751 12.7875 18.9751C12.1883 18.9751 11.7025 19.2907 11.7025 19.6801C11.7025 20.0695 12.1883 20.3851 12.7875 20.3851Z" fill="#F85565"/>
<path opacity="0.1" d="M19.2124 20.3851C19.8117 20.3851 20.2974 20.0695 20.2974 19.6801C20.2974 19.2907 19.8117 18.9751 19.2124 18.9751C18.6132 18.9751 18.1274 19.2907 18.1274 19.6801C18.1274 20.0695 18.6132 20.3851 19.2124 20.3851Z" fill="#F85565"/>
<path d="M17.8875 21C17.9205 21.0019 17.9529 21.0104 17.9827 21.0249C18.0125 21.0394 18.039 21.0597 18.0609 21.0846C18.0828 21.1095 18.0995 21.1385 18.11 21.1699C18.1206 21.2013 18.1248 21.2345 18.1225 21.2675C18.0605 21.7876 17.8101 22.2669 17.4184 22.6147C17.0268 22.9625 16.5212 23.1546 15.9975 23.1546C15.4737 23.1546 14.9681 22.9625 14.5765 22.6147C14.1848 22.2669 13.9344 21.7876 13.8725 21.2675C13.8701 21.2341 13.8745 21.2005 13.8853 21.1688C13.8962 21.137 13.9134 21.1078 13.9357 21.0829C13.9581 21.0579 13.9853 21.0377 14.0157 21.0235C14.046 21.0092 14.0789 21.0013 14.1125 21H17.8875Z" fill="#393C54"/>
<path d="M14.75 22.7275C15.1154 22.9956 15.5568 23.1401 16.01 23.1401C16.4632 23.1401 16.9046 22.9956 17.27 22.7275C17 22.29 16.5425 22.25 16 22.25C15.4575 22.25 15 22.29 14.75 22.7275Z" fill="#F85565"/>
<path d="M16 21H15.5V21.5H16V21Z" fill="white"/>
<path d="M16.75 21H16.25V21.5H16.75V21Z" fill="white"/>
<path d="M19 18.4675C19.4142 18.4675 19.75 18.1317 19.75 17.7175C19.75 17.3033 19.4142 16.9675 19 16.9675C18.5858 16.9675 18.25 17.3033 18.25 17.7175C18.25 18.1317 18.5858 18.4675 19 18.4675Z" fill="#515570"/>
<path d="M13 18.4675C13.4142 18.4675 13.75 18.1317 13.75 17.7175C13.75 17.3033 13.4142 16.9675 13 16.9675C12.5858 16.9675 12.25 17.3033 12.25 17.7175C12.25 18.1317 12.5858 18.4675 13 18.4675Z" fill="#515570"/>
<path d="M22.8724 15.03V14.85C22.8724 11.1125 19.9449 7.94753 16.2074 7.85003C15.2893 7.82298 14.375 7.98013 13.5185 8.31222C12.6621 8.6443 11.8809 9.14458 11.2209 9.78354C10.561 10.4225 10.0358 11.1872 9.6762 12.0325C9.31664 12.8777 9.13005 13.7865 9.12744 14.705V15.0375C9.12744 15.1701 9.18012 15.2973 9.27389 15.3911C9.36766 15.4848 9.49483 15.5375 9.62744 15.5375H11.4724C11.7411 15.5385 12.0055 15.47 12.2399 15.3385C12.4743 15.2071 12.6706 15.0173 12.8099 14.7875L13.4399 13.74H16.6899C17.7899 14.825 19.1899 15.535 20.7424 15.535H22.3524C22.4202 15.5377 22.4878 15.5267 22.5511 15.5024C22.6144 15.4782 22.6722 15.4414 22.7208 15.3941C22.7695 15.3469 22.808 15.2902 22.834 15.2277C22.8601 15.1651 22.8732 15.0978 22.8724 15.03Z" fill="#393C54"/>
<path d="M22.73 14.25C22.799 14.2502 22.8672 14.2361 22.9305 14.2087C22.9937 14.1812 23.0506 14.141 23.0975 14.0905C23.1445 14.0401 23.1805 13.9804 23.2033 13.9154C23.2261 13.8503 23.2352 13.7812 23.23 13.7125C22.965 10.0075 19.98 6.96249 16.23 6.84999C12.3125 6.73249 9.06004 9.88249 8.78004 13.715C8.77523 13.7835 8.78459 13.8523 8.80756 13.9171C8.83052 13.9819 8.86659 14.0412 8.91351 14.0914C8.96043 14.1416 9.01719 14.1816 9.08025 14.2089C9.14331 14.2362 9.21132 14.2502 9.28004 14.25H22.73Z" fill="#4BC190"/>
<path opacity="0.4" d="M18.5 14.25C18.64 14.25 18.75 14 18.75 13.7125C18.62 10.0075 17.9275 6.96249 16.1075 6.84999C14.21 6.73249 12.135 9.88249 12 13.715C12 14 12.1025 14.25 12.25 14.25H18.5Z" fill="white"/>
<path d="M17.6675 13C17.6675 14.25 13.15 14.25 13.15 13C13.15 12.4009 13.388 11.8264 13.8116 11.4028C14.2352 10.9792 14.8097 10.7412 15.4088 10.7412C16.0078 10.7412 16.5824 10.9792 17.006 11.4028C17.4296 11.8264 17.6675 12.4009 17.6675 13Z" fill="#393C54"/>
<path d="M16.52 11.98C16.3799 11.8234 16.2085 11.6979 16.0169 11.6118C15.8252 11.5257 15.6176 11.4808 15.4075 11.48H12.985" stroke="#515570" stroke-miterlimit="10" stroke-linecap="round"/>
<path d="M12 13H18.875C19.0408 13 19.1997 13.0658 19.3169 13.1831C19.4342 13.3003 19.5 13.4592 19.5 13.625C19.5 13.7908 19.4342 13.9497 19.3169 14.0669C19.1997 14.1842 19.0408 14.25 18.875 14.25H12C11.9337 14.25 11.8701 14.2237 11.8232 14.1768C11.7763 14.1299 11.75 14.0663 11.75 14V13.25C11.75 13.1837 11.7763 13.1201 11.8232 13.0732C11.8701 13.0263 11.9337 13 12 13Z" fill="#4BC190"/>
<path opacity="0.3" d="M12 13H18.875C19.0408 13 19.1997 13.0658 19.3169 13.1831C19.4342 13.3003 19.5 13.4592 19.5 13.625C19.5 13.7908 19.4342 13.9497 19.3169 14.0669C19.1997 14.1842 19.0408 14.25 18.875 14.25H12C11.9337 14.25 11.8701 14.2237 11.8232 14.1768C11.7763 14.1299 11.75 14.0663 11.75 14V13.25C11.75 13.1837 11.7763 13.1201 11.8232 13.0732C11.8701 13.0263 11.9337 13 12 13Z" fill="#356CB6"/>
<path d="M18.6675 13.875C18.8056 13.875 18.9175 13.7631 18.9175 13.625C18.9175 13.4869 18.8056 13.375 18.6675 13.375C18.5294 13.375 18.4175 13.4869 18.4175 13.625C18.4175 13.7631 18.5294 13.875 18.6675 13.875Z" fill="#393C54"/>
<path d="M17.6675 13.875C17.8056 13.875 17.9175 13.7631 17.9175 13.625C17.9175 13.4869 17.8056 13.375 17.6675 13.375C17.5294 13.375 17.4175 13.4869 17.4175 13.625C17.4175 13.7631 17.5294 13.875 17.6675 13.875Z" fill="#393C54"/>
<path d="M16.6675 13.875C16.8056 13.875 16.9175 13.7631 16.9175 13.625C16.9175 13.4869 16.8056 13.375 16.6675 13.375C16.5294 13.375 16.4175 13.4869 16.4175 13.625C16.4175 13.7631 16.5294 13.875 16.6675 13.875Z" fill="#393C54"/>
<path d="M15.6675 13.875C15.8056 13.875 15.9175 13.7631 15.9175 13.625C15.9175 13.4869 15.8056 13.375 15.6675 13.375C15.5294 13.375 15.4175 13.4869 15.4175 13.625C15.4175 13.7631 15.5294 13.875 15.6675 13.875Z" fill="#393C54"/>
<path d="M14.6675 13.875C14.8056 13.875 14.9175 13.7631 14.9175 13.625C14.9175 13.4869 14.8056 13.375 14.6675 13.375C14.5294 13.375 14.4175 13.4869 14.4175 13.625C14.4175 13.7631 14.5294 13.875 14.6675 13.875Z" fill="#393C54"/>
<path d="M13.6675 13.875C13.8056 13.875 13.9175 13.7631 13.9175 13.625C13.9175 13.4869 13.8056 13.375 13.6675 13.375C13.5294 13.375 13.4175 13.4869 13.4175 13.625C13.4175 13.7631 13.5294 13.875 13.6675 13.875Z" fill="#393C54"/>
</svg>
