<svg width="32" height="32" viewBox="0 0 32 32" fill="none" xmlns="http://www.w3.org/2000/svg">
<path d="M18.1049 20.6316C17.4295 20.8326 16.7286 20.9345 16.0239 20.9343C15.3056 20.9343 14.6083 20.8294 13.9439 20.6316C10.3154 19.5536 7.63403 15.7223 7.63403 11.1588C7.63403 5.75799 11.3894 1.38123 16.0239 1.38123C20.6584 1.38123 24.4158 5.75799 24.4158 11.1588C24.4158 15.7223 21.7324 19.5536 18.1049 20.6316Z" fill="#5FCEFF"/>
<path d="M18.105 20.6316L18.5036 23.9474H13.5454L13.944 20.6316C14.619 20.8327 15.3197 20.9346 16.024 20.9343C16.7423 20.9343 17.4396 20.8294 18.105 20.6316Z" fill="#FF4893"/>
<path d="M16.024 21.6335C15.2521 21.6337 14.4843 21.522 13.7445 21.3018C9.7352 20.1107 6.93481 15.9397 6.93481 11.1587C6.93481 5.38173 11.0122 0.681885 16.024 0.681885C21.037 0.681885 25.1152 5.38173 25.1152 11.1587C25.1152 15.9392 22.3144 20.1103 18.3042 21.3019C17.5641 21.5218 16.7961 21.6335 16.024 21.6335ZM16.024 2.08043C11.7834 2.08043 8.33346 6.15289 8.33346 11.1586C8.33346 15.3252 10.7225 18.9449 14.1432 19.9611C15.3632 20.3245 16.6838 20.3245 17.9059 19.9611C21.3272 18.9444 23.7167 15.3247 23.7167 11.1586C23.7166 6.15289 20.2657 2.08043 16.024 2.08043Z" fill="#4F46A3"/>
<path d="M18.5036 24.6466H13.5455C13.4466 24.6466 13.3489 24.6256 13.2587 24.5851C13.1685 24.5445 13.088 24.4853 13.0224 24.4113C12.9567 24.3374 12.9076 24.2503 12.8781 24.1559C12.8485 24.0616 12.8394 23.962 12.8512 23.8638L13.2498 20.5482C13.2958 20.1657 13.6442 19.8874 14.0256 19.9326C14.4083 19.9771 14.6833 20.3182 14.6401 20.701L14.6385 20.7152L14.3339 23.2481H17.7153L17.4108 20.7152L17.4096 20.7048C17.3878 20.5206 17.4401 20.3354 17.5549 20.1897C17.6697 20.0441 17.8377 19.9501 18.0219 19.9283C18.4057 19.8822 18.7531 20.1569 18.7984 20.5406L18.7995 20.5497L19.1979 23.8641C19.2097 23.9623 19.2005 24.0618 19.171 24.1562C19.1415 24.2505 19.0923 24.3375 19.0267 24.4115C18.9611 24.4854 18.8805 24.5446 18.7904 24.5851C18.7002 24.6256 18.6025 24.6466 18.5036 24.6466Z" fill="#4F46A3"/>
<path d="M15.025 31.6518C14.9331 31.6518 14.8422 31.6337 14.7574 31.5986C14.6725 31.5634 14.5954 31.5119 14.5305 31.447C14.4655 31.3821 14.414 31.305 14.3789 31.2201C14.3437 31.1353 14.3256 31.0443 14.3256 30.9525C14.3256 29.9879 15.1458 29.5365 15.6884 29.2378C15.9724 29.0815 16.3256 28.887 16.3256 28.7506C16.3256 28.6127 15.9716 28.4179 15.6869 28.2612C15.1449 27.9628 14.3255 27.5118 14.3255 26.5488C14.3255 25.5842 15.1457 25.1327 15.6883 24.834C15.9723 24.6778 16.3255 24.4833 16.3255 24.3469C16.3255 24.2551 16.3436 24.1641 16.3787 24.0793C16.4139 23.9944 16.4654 23.9173 16.5303 23.8524C16.5953 23.7875 16.6724 23.7359 16.7572 23.7008C16.8421 23.6657 16.933 23.6476 17.0248 23.6476C17.1167 23.6476 17.2076 23.6657 17.2925 23.7008C17.3773 23.7359 17.4544 23.7875 17.5193 23.8524C17.5843 23.9173 17.6358 23.9944 17.6709 24.0793C17.7061 24.1641 17.7242 24.2551 17.7242 24.3469C17.7242 25.31 16.9049 25.7608 16.3628 26.0593C16.0782 26.2159 15.7241 26.4109 15.7241 26.5488C15.7241 26.6851 16.0775 26.8796 16.3613 27.0359C16.904 27.3346 17.7242 27.7861 17.7242 28.7506C17.7242 29.7137 16.9049 30.1646 16.3628 30.4631C16.0782 30.6196 15.7241 30.8146 15.7241 30.9525C15.7241 31.0443 15.7061 31.1353 15.671 31.2201C15.6358 31.305 15.5843 31.3821 15.5194 31.447C15.4545 31.5119 15.3774 31.5635 15.2926 31.5986C15.2077 31.6337 15.1168 31.6518 15.025 31.6518ZM16.024 18.5975C12.4489 18.5975 9.54028 15.2604 9.54028 11.1587C9.54028 10.9732 9.61396 10.7953 9.74511 10.6642C9.87626 10.533 10.0541 10.4593 10.2396 10.4593C10.4251 10.4593 10.603 10.533 10.7341 10.6642C10.8653 10.7953 10.9389 10.9732 10.9389 11.1587C10.9389 14.4892 13.2201 17.1988 16.024 17.1988C16.2095 17.1988 16.3874 17.2725 16.5185 17.4036C16.6496 17.5348 16.7233 17.7127 16.7233 17.8981C16.7233 18.0836 16.6496 18.2615 16.5185 18.3926C16.3874 18.5238 16.2095 18.5975 16.024 18.5975ZM10.6851 9.26271C10.573 9.2627 10.4625 9.23574 10.363 9.1841C10.2635 9.13246 10.1778 9.05765 10.1133 8.96597C10.0487 8.8743 10.0072 8.76845 9.99211 8.65735C9.97705 8.54626 9.98891 8.43316 10.0267 8.32761C10.3136 7.52589 10.7181 6.7925 11.229 6.14782C11.2861 6.07584 11.3567 6.0158 11.437 5.97113C11.5172 5.92645 11.6055 5.89802 11.6967 5.88746C11.7879 5.87689 11.8804 5.8844 11.9687 5.90955C12.057 5.9347 12.1395 5.977 12.2115 6.03403C12.2835 6.09107 12.3435 6.16173 12.3882 6.24197C12.4329 6.32221 12.4613 6.41046 12.4719 6.50169C12.4824 6.59292 12.4749 6.68534 12.4498 6.77366C12.4246 6.86199 12.3823 6.9445 12.3253 7.01648C11.9093 7.54137 11.579 8.14109 11.3436 8.79885C11.295 8.9346 11.2057 9.05202 11.0878 9.13505C10.9699 9.21808 10.8293 9.26266 10.6851 9.26271Z" fill="#4F46A3"/>
</svg>
