<svg width="32" height="32" viewBox="0 0 32 32" fill="none" xmlns="http://www.w3.org/2000/svg">
<path d="M4.91247 21.0324C4.91247 21.0324 4.45497 21.8774 4.41997 22.4049C4.38497 22.9324 4.73747 27.2274 5.50997 28.1774C6.28247 29.1274 8.64247 31.6274 15.61 31.6974C22.5775 31.7674 26.1325 28.5999 26.52 27.9674C26.9075 27.3349 27.4 24.3774 27.435 22.0549C27.47 19.7324 15.0825 21.3499 15.0825 21.3499L4.91247 21.0324Z" fill="#FBB75A"/>
<path d="M15.47 26.6625C21.665 26.8375 27.4 23.0375 27.4 23.0375L27.225 24.9375C27.225 24.9375 22.51 28.5625 15.575 28.3875C8.63996 28.2125 4.62996 24.9375 4.62996 24.9375L4.45496 23.2825C4.45496 23.2825 10.0525 26.5075 15.47 26.6625Z" fill="#F2A05B"/>
<path d="M16.245 11.88C13.605 11.8925 5.65253 12.5125 4.84253 15.8925C4.03253 19.2725 4.13753 22.44 4.28003 22.72C4.42003 23.0025 4.73503 22.515 5.47753 22.79C6.42753 23.1425 6.35753 25.71 8.08253 26.1675C9.80753 26.625 9.84253 24.2675 11.8125 24.4075C13.7825 24.5475 12.8675 27.19 15.4725 27.2225C18.1475 27.2575 17.155 24.6075 19.0275 24.3725C20.88 24.1375 19.9075 27.0125 22.4775 26.625C25.0475 26.2375 24.75 22.58 26.065 22.1925C27.0625 21.9 26.9775 22.88 27.45 22.8375C27.8375 22.8025 27.685 17.44 27.3325 16.245C26.98 15.05 23.67 11.845 16.245 11.88Z" fill="url(#paint0_radial_45_98)"/>
<path d="M8.23752 19.43C6.36502 18.64 5.76002 17.8925 5.45752 17.5125C5.24752 17.2475 4.93002 17.1425 4.75252 17.355C4.57752 17.565 4.66502 17.795 4.85752 18.0225C5.05002 18.2525 5.91252 19.57 8.13002 20.2925C10.08 20.9275 11.3675 21.015 11.86 21.0325C12.4075 21.0525 12.635 20.365 11.9125 20.275C11.085 20.1725 10.28 20.2925 8.23752 19.43Z" fill="#FDFFFF"/>
<path d="M13.8625 20.5274C13.3825 20.5149 13.205 20.7849 13.205 20.9974C13.205 21.2549 13.4275 21.3974 13.815 21.4199C14.2025 21.4424 14.425 21.1849 14.425 21.0099C14.4275 20.8324 14.32 20.5374 13.8625 20.5274Z" fill="#FDFFFF"/>
<path d="M6.28501 22.1951C6.06501 22.4101 6.15751 22.6601 6.26251 22.7901C6.43501 23.0026 6.74501 23.0376 6.90501 22.9126C7.08751 22.7726 7.06501 22.5126 6.95001 22.3401C6.80251 22.1151 6.50251 21.9801 6.28501 22.1951Z" fill="#FCE9CA"/>
<path d="M6.9 23.12C6.5975 23.29 6.7325 23.6675 6.895 23.9775C7.2425 24.6375 7.3525 25.175 7.7525 25.44C8.1575 25.7075 8.6575 25.5225 8.61 25.245C8.535 24.8025 8.2625 25.1375 8.0275 24.5775C7.93 24.345 7.73 23.9725 7.4975 23.47C7.3625 23.175 7.205 22.9475 6.9 23.12Z" fill="#FCE9CA"/>
<path d="M13.9449 24.9025C13.6474 25.115 13.8274 25.6525 14.2024 26.075C14.5774 26.4975 15.1049 26.8375 15.6799 26.685C16.1249 26.5675 16.0899 26.075 15.7849 25.935C15.4799 25.795 15.1174 25.8775 14.7874 25.4425C14.6274 25.23 14.4024 24.575 13.9449 24.9025Z" fill="#FCE9CA"/>
<path d="M21.01 24.44C20.715 24.6575 20.9925 25.11 21.175 25.4225C21.3575 25.735 21.96 26.335 22.3125 25.98C22.57 25.72 22.085 25.405 21.8575 25.065C21.6875 24.8075 21.4025 24.1475 21.01 24.44Z" fill="#FCE9CA"/>
<path d="M20.5025 23.6251C20.3075 23.7676 20.3375 23.9926 20.4075 24.1176C20.5025 24.2826 20.8075 24.3526 20.9825 24.2001C21.1525 24.0526 21.0525 23.8126 20.96 23.6951C20.8675 23.5776 20.6325 23.5301 20.5025 23.6251Z" fill="#FCE9CA"/>
<path d="M21.6 9.89246C21.6 9.89246 19.6675 12.5575 19.79 13.0875C19.885 13.505 20.335 13.9525 21.2975 14.0175C22.26 14.0825 22.8625 13.635 23 13.21C23.185 12.645 22.5825 10.845 22.365 10.4875C22.0575 9.97996 21.78 9.90746 21.6 9.89246Z" fill="#EE5B4A"/>
<path d="M25.595 12.2975L23.5175 15.2075C23.5175 15.2075 23.58 15.845 24.205 16.12C24.8575 16.405 26.19 16.4225 26.5725 15.865C27.0075 15.2325 26.82 14.145 26.6 13.4875C26.43 12.9725 26.07 12.2425 25.595 12.2975Z" fill="#EE5B4A"/>
<path d="M22.0774 15.585L20.0674 18.6725C20.0674 18.6725 20.0449 19.4375 20.9524 19.65C21.6724 19.8175 22.9949 19.825 23.4874 19.4025C23.9799 18.98 23.9399 18.13 23.5149 17.2375C23.0499 16.2675 22.3599 15.355 22.0774 15.585Z" fill="#EE5B4A"/>
<path d="M17.0725 16.3425L14.44 19.5275C14.44 19.5275 14.3875 20.1425 15.0375 20.4425C15.8725 20.83 17.1575 20.81 17.81 20.46C18.3825 20.1525 18.47 19.1775 18.2625 18.5675C18.0925 18.07 17.8575 17.6475 17.77 17.4175C17.6825 17.19 17.3875 16.4825 17.0725 16.3425Z" fill="#EE5B4A"/>
<path d="M11.405 15.2675L9.16248 18.77C9.16248 18.77 9.23247 19.5875 10.0875 19.755C10.825 19.9 12.04 19.985 12.4625 19.455C12.885 18.925 12.9025 17.58 12.4975 16.63C12.0925 15.6825 11.74 15.3925 11.405 15.2675Z" fill="#EE5B4A"/>
<path d="M8.00001 11.965L7.70001 11.8575L5.70001 15.0175C5.70001 15.0175 5.64251 15.575 6.10751 15.8725C6.54751 16.155 7.94752 16.295 8.70251 15.925C9.46001 15.555 9.40501 14.315 8.87751 13.25C8.39001 12.2625 8.00001 11.965 8.00001 11.965Z" fill="#EE5B4A"/>
<path d="M11.67 9.63245L9.72754 12.9849C9.72754 12.9849 9.81254 13.4199 10.4825 13.6099C11.14 13.7974 12 13.7624 12.44 13.4224C12.8825 13.0824 13 12.3349 12.7975 11.4674C12.66 10.8749 12.1275 9.80245 11.67 9.63245Z" fill="#EE5B4A"/>
<path d="M9.75255 16.4901C9.33505 17.3901 8.75005 18.7251 9.41755 19.1651C10.0851 19.6051 11.0726 18.9001 11.4226 17.5801C11.7726 16.2601 11.8276 15.6001 11.4926 15.3176C11.1601 15.0401 10.2976 15.3126 9.75255 16.4901Z" fill="#FD6F42"/>
<path d="M7.4875 11.755C7.0125 11.785 6.4675 12.52 6.195 13.2425C5.9225 13.965 5.605 14.8625 5.72 15.1525C5.835 15.4425 6.6175 15.795 6.9525 15.18C7.2875 14.565 7.22 13.7425 7.295 13.3225C7.4275 12.5825 8 11.9675 8 11.9675C8 11.9675 7.805 11.735 7.4875 11.755Z" fill="#FD6F42"/>
<path d="M11.2524 9.4875C10.9124 9.5075 10.5899 9.65 10.2999 10.6C10.1424 11.12 9.69741 11.7225 9.65491 12.29C9.61241 12.86 9.73991 13.0075 9.73991 13.0075C9.73991 13.0075 10.5549 13.165 10.8724 12.53C11.1774 11.9225 11.0824 11.3025 11.1849 11.015C11.2874 10.725 11.7549 9.6725 11.7549 9.6725C11.7549 9.6725 11.5499 9.4725 11.2524 9.4875Z" fill="#FD6F42"/>
<path d="M21.5175 9.87501C21.16 9.85751 20.6375 10.3 20.305 11.09C19.97 11.88 19.7675 12.7375 19.7825 12.99C19.7975 13.2425 21.1175 13.2725 21.5825 12.51C21.875 12.03 21.86 10.7425 21.8275 10.4325C21.7975 10.12 21.89 9.89251 21.5175 9.87501Z" fill="#FF6E45"/>
<path d="M25.485 12.2876C25.1775 12.3376 24.4525 12.5151 23.8675 13.7776C23.5025 14.5651 23.3925 15.3226 23.6575 15.4326C23.9225 15.5426 24.645 15.6526 24.975 15.2401C25.305 14.8276 25.67 13.7051 25.7525 13.1451C25.8325 12.5901 25.8875 12.2226 25.485 12.2876Z" fill="#FF6E45"/>
<path d="M20.1425 18.8849C20.5375 19.2449 21.29 18.9049 21.56 18.5849C21.9725 18.0924 22.3175 17.0624 22.335 16.3424C22.3475 15.8199 22.4675 15.5249 22.01 15.5499C21.8525 15.5599 21.42 15.6374 20.92 16.3774C20.5225 16.9624 20.295 17.4249 20.1625 17.9974C20.05 18.4724 20.0275 18.7799 20.1425 18.8849Z" fill="#FF6E45"/>
<path d="M16.5524 16.165C16.2974 16.155 15.8124 16.305 15.3124 17.1325C14.8099 17.96 14.2399 19.2975 14.4849 19.71C14.7324 20.1225 15.3374 20.1675 15.9549 19.9125C16.5699 19.6575 16.9924 18.7675 17.0274 18.4075C17.0624 18.0475 17.2999 16.5075 17.0974 16.3575C16.8949 16.21 16.7724 16.175 16.5524 16.165Z" fill="#FF6E45"/>
<path d="M26.075 6.50744C26.075 9.98994 20.51 13.0774 16.1725 13.0774C11.835 13.0774 6.3175 9.80244 6.3175 6.31994C6.3175 2.83744 11.7575 0.0649414 16.0925 0.0649414C20.4275 0.0649414 26.075 3.02494 26.075 6.50744Z" fill="url(#paint1_radial_45_98)"/>
<path d="M18.1976 7.78C18.2851 7.6575 19.9326 7.795 20.0801 7.8325C20.1501 7.85 20.1326 14.1325 20.0451 14.185C19.9701 14.23 19.6751 14.5025 19.1126 14.5025C18.5501 14.5025 18.2326 14.31 18.1276 14.2375C18.0226 14.1675 18.1101 7.9025 18.1976 7.78Z" fill="#FEA8A8"/>
<path d="M15.1725 9.33007C15.105 9.38757 15.085 15.4551 15.1375 15.5076C15.19 15.5601 15.5425 15.8776 16.2275 15.8601C16.915 15.8426 17.23 15.5951 17.2825 15.5426C17.335 15.4901 17.3175 9.33007 17.265 9.29507C17.2125 9.25757 15.2775 9.24007 15.1725 9.33007Z" fill="#EC7FAE"/>
<path d="M12.215 8.02759C12.13 8.07759 12.1275 14.2401 12.1625 14.2926C12.1975 14.3451 12.7075 14.5226 13.1825 14.5226C13.6575 14.5226 14.115 14.4176 14.1675 14.3651C14.22 14.3126 14.185 8.10009 14.1325 8.03009C14.08 7.96009 12.3025 7.97509 12.215 8.02759Z" fill="#93C7EE"/>
<path d="M16.2449 3.75C16.3499 3.75 16.4924 4.5775 16.6849 5.0525C16.8774 5.5275 17.5999 6.7075 17.3174 7.7275C17.0099 8.845 15.2674 9.0625 14.8899 7.605C14.6249 6.585 15.5224 5.5275 15.7524 5.0525C15.9099 4.725 16.1724 3.75 16.2449 3.75Z" fill="url(#paint2_radial_45_98)"/>
<path d="M19.0775 2.46509C19.0775 2.46509 18.8175 3.65009 18.4975 4.15509C18.04 4.87759 17.75 5.86509 18.11 6.67259C18.5675 7.69259 20.4 7.64009 20.4325 5.89759C20.45 4.98259 20.05 4.49759 19.765 3.98009C19.57 3.62759 19.2 2.50009 19.0775 2.46509Z" fill="url(#paint3_radial_45_98)"/>
<path d="M13.2525 2.65991C13.2525 2.65991 12.7775 3.83991 12.4775 4.27991C12.1775 4.71991 11.645 5.75741 11.95 6.58491C12.32 7.58741 13.9575 7.70741 14.2725 6.39241C14.4825 5.51241 14.025 4.84491 13.71 4.12241C13.5125 3.66741 13.2525 2.65991 13.2525 2.65991Z" fill="url(#paint4_radial_45_98)"/>
<defs>
<radialGradient id="paint0_radial_45_98" cx="0" cy="0" r="1" gradientUnits="userSpaceOnUse" gradientTransform="translate(16.329 15.6813) rotate(91.1173) scale(11.4461 24.9175)">
<stop offset="0.445" stop-color="#FEEAC9"/>
<stop offset="0.565" stop-color="#FEE7C2"/>
<stop offset="0.741" stop-color="#FEDEAE"/>
<stop offset="0.952" stop-color="#FFCF8D"/>
<stop offset="1" stop-color="#FFCB85"/>
</radialGradient>
<radialGradient id="paint1_radial_45_98" cx="0" cy="0" r="1" gradientUnits="userSpaceOnUse" gradientTransform="translate(16.1978 6.57086) scale(9.756 6.00677)">
<stop offset="0.034" stop-color="#FFE265" stop-opacity="0.7"/>
<stop offset="0.112" stop-color="#FFE575" stop-opacity="0.643"/>
<stop offset="0.417" stop-color="#FFF0B0" stop-opacity="0.422"/>
<stop offset="0.677" stop-color="#FFF8DB" stop-opacity="0.234"/>
<stop offset="0.88" stop-color="#FFFDF5" stop-opacity="0.087"/>
<stop offset="1" stop-color="white" stop-opacity="0"/>
</radialGradient>
<radialGradient id="paint2_radial_45_98" cx="0" cy="0" r="1" gradientUnits="userSpaceOnUse" gradientTransform="translate(16.2271 8.9945) scale(4.857 4.857)">
<stop offset="0.17" stop-color="#FF9616"/>
<stop offset="0.654" stop-color="#FFD429"/>
</radialGradient>
<radialGradient id="paint3_radial_45_98" cx="0" cy="0" r="1" gradientUnits="userSpaceOnUse" gradientTransform="translate(19.303 7.70684) scale(4.761)">
<stop offset="0.17" stop-color="#FF9616"/>
<stop offset="0.654" stop-color="#FFD429"/>
</radialGradient>
<radialGradient id="paint4_radial_45_98" cx="0" cy="0" r="1" gradientUnits="userSpaceOnUse" gradientTransform="translate(13.2055 7.70541) scale(4.71325)">
<stop offset="0.17" stop-color="#FF9616"/>
<stop offset="0.654" stop-color="#FFD429"/>
</radialGradient>
</defs>
</svg>
