<svg width="32" height="32" viewBox="0 0 32 32" fill="none" xmlns="http://www.w3.org/2000/svg">
<g clip-path="url(#clip0_58_2733)">
<path d="M19.4443 1.51216V0.571655H18.5038C17.3276 0.571655 16.3743 1.52509 16.3743 2.70116V3.64166H17.3148C18.4909 3.64172 19.4443 2.68828 19.4443 1.51216Z" fill="#F4BD64"/>
<path d="M17.895 14.4611C18.241 14.5815 18.6197 14.5643 18.9505 14.4069C20.7191 13.5658 21.9417 11.7628 21.9417 9.67401C21.9417 6.78095 19.5964 4.06088 16.7034 5.9347C13.8103 4.06088 11.465 6.78095 11.465 9.67401C11.465 11.7628 12.6876 13.5658 14.4562 14.4069C14.787 14.5642 15.1657 14.5815 15.5117 14.4611" fill="#4EB79B"/>
<path d="M15.8058 14.4613H15.5124C15.1663 14.5817 14.7875 14.5646 14.4562 14.4071C12.6876 13.5655 11.465 11.7628 11.465 9.67408C11.465 7.16345 13.232 4.78288 15.5897 5.42313C14.9271 5.87845 14.4814 7.73764 14.4814 9.67408C14.4814 11.7628 14.9998 13.5655 15.7501 14.4071C15.7687 14.4272 15.7865 14.4457 15.8058 14.4613Z" fill="#40A084"/>
<path d="M28.3353 31.4577H6.35509C5.03621 31.4577 3.84114 30.9225 2.97646 30.0578C2.1127 29.1932 1.57751 27.999 1.57751 26.6792C1.57751 24.0405 3.71646 21.9006 6.35509 21.9006H28.3353" fill="#D37250"/>
<path d="M29.0026 23.8469H15.6124V29.8632H29.0026V23.8469Z" fill="#E6E6E6"/>
<path d="M28.6685 14.54H15.6334V14.5442C15.5966 14.5418 15.5595 14.54 15.522 14.54H2.48694V16.7684H3.71232V19.6727H2.48694V21.9011H15.522C15.5595 21.9011 15.5966 21.8994 15.6335 21.8969V21.9011H28.6686C29.5792 21.9011 30.3182 21.162 30.3182 20.2514V16.1891C30.3182 15.2784 29.5791 14.54 28.6685 14.54Z" fill="#F4BD64"/>
<path d="M30.4512 24.631H18.2381C17.1095 24.631 16.1911 25.5503 16.1911 26.679C16.1911 27.8085 17.1095 28.7269 18.2381 28.7269H30.4512V31.4575H18.2381C16.9193 31.4575 15.7242 30.9223 14.8595 30.0576C13.9958 29.1929 13.4606 27.9988 13.4606 26.679C13.4606 24.0403 15.5995 21.9004 18.2381 21.9004H30.4512L30.4512 24.631Z" fill="#E88158"/>
<path d="M15.6128 15.9363H3.71265V20.5044H15.6128V15.9363Z" fill="#CCCCCC"/>
<path d="M2.48694 19.6727H14.9434V16.7684H2.48694V14.54H15.522C16.4327 14.54 17.1718 15.2784 17.1718 16.189V20.2513C17.1718 21.1619 16.4327 21.9011 15.5221 21.9011H2.48694V19.6727Z" fill="#DDA758"/>
<path d="M30.4368 25.1737C30.7445 25.1737 30.9939 24.9242 30.9939 24.6166V21.886C30.9939 21.6214 30.8093 21.4004 30.5619 21.3435C30.7515 21.0179 30.8608 20.6399 30.8608 20.2367V16.1744C30.8608 14.958 29.8708 13.9683 28.654 13.9683H26.102C25.7942 13.9683 25.5449 14.2178 25.5449 14.5254C25.5449 14.833 25.7943 15.0825 26.102 15.0825H28.654C29.2565 15.0825 29.7466 15.5723 29.7466 16.1743V20.2366C29.7466 20.8367 29.2603 21.3249 28.6611 21.3289H17.4242C17.6086 21.0065 17.7146 20.6339 17.7146 20.2367V16.1745C17.7146 15.7773 17.6085 15.4047 17.424 15.0823H24.2451C24.5528 15.0823 24.8022 14.8329 24.8022 14.5253C24.8022 14.2177 24.5528 13.9682 24.2451 13.9682H20.5607C21.7618 12.8832 22.4846 11.3186 22.4846 9.65946C22.4846 7.72608 21.5371 5.91189 20.127 5.1452C19.1953 4.6387 18.1424 4.61745 17.0996 5.06876C17.0357 4.80057 16.9462 4.49213 16.8231 4.18413H17.3004C18.7818 4.18413 19.987 2.97888 19.987 1.49757V0.557064C19.987 0.249376 19.7376 0 19.43 0H18.4895C17.0081 0 15.8029 1.20525 15.8029 2.68657V2.77751C15.5444 2.60669 15.2415 2.50288 14.8864 2.50288C14.5787 2.50288 14.3293 2.75232 14.3293 3.05994C14.3293 3.36757 14.5788 3.61701 14.8864 3.61701C15.3448 3.61701 15.687 4.26307 15.8993 4.92638C14.9824 4.63076 14.0699 4.70001 13.2513 5.14514C11.8411 5.91182 10.8937 7.72602 10.8937 9.6594C10.8937 11.3186 11.6165 12.8833 12.8177 13.9683H2.47267C2.16498 13.9683 1.91561 14.2177 1.91561 14.5253V16.7537C1.91561 17.0614 2.16504 17.3108 2.47267 17.3108H3.14117V19.1009H2.47267C2.16498 19.1009 1.91561 19.3504 1.91561 19.658V21.8864C1.91561 22.194 2.16504 22.4434 2.47267 22.4434H3.08317C1.82104 23.4201 1.0061 24.9484 1.0061 26.6643C1.0061 28.0887 1.56079 29.4284 2.56823 30.4369C3.57617 31.4448 4.91592 31.9999 6.34074 31.9999H30.4368C30.7446 31.9999 30.9939 31.7505 30.9939 31.4429V28.7123C30.9939 28.4046 30.7445 28.1552 30.4368 28.1552H29.5456V25.1736H30.4368V25.1737ZM16.917 2.68657C16.917 1.8195 17.6224 1.11419 18.4894 1.11419H18.8728V1.49763C18.8728 2.36469 18.1674 3.07001 17.3004 3.07001H16.917V2.68657ZM14.6811 13.8893C13.0571 13.1169 12.0078 11.4566 12.0078 9.65952C12.0078 8.14633 12.7379 6.69258 13.7834 6.12401C14.5643 5.69951 15.4642 5.79064 16.3862 6.38776C16.5703 6.50708 16.8075 6.50714 16.9919 6.38776C17.9139 5.79064 18.8139 5.69951 19.5948 6.12401C20.6402 6.69245 21.3704 8.14633 21.3704 9.65952C21.3704 11.4566 20.321 13.1169 18.697 13.8893C18.5 13.983 14.8781 13.983 14.6811 13.8893ZM3.02973 21.3295V20.2153H8.20099C8.50868 20.2153 8.75806 19.9659 8.75806 19.6582C8.75806 19.3505 8.50862 19.1012 8.20099 19.1012H4.25536V17.311H14.3721V19.1012H10.058C9.75031 19.1012 9.50093 19.3506 9.50093 19.6582C9.50093 19.9659 9.75037 20.2153 10.058 20.2153H14.9292C15.2369 20.2153 15.4863 19.9659 15.4863 19.6582V16.754C15.4863 16.4463 15.2368 16.1969 14.9292 16.1969H3.02973V15.0827H15.5078C16.1102 15.0827 16.6004 15.5726 16.6004 16.1746V20.2369C16.6004 20.8357 16.116 21.3231 15.5185 21.329H6.34068C6.33349 21.329 6.32643 21.3295 6.31924 21.3295H3.02973ZM29.8797 30.8859H28.321H18.2238C17.0965 30.8859 16.0366 30.4467 15.239 29.6492C15.0214 29.4317 14.6687 29.4317 14.4512 29.6492C14.2336 29.8668 14.2336 30.2196 14.4512 30.4371C14.6131 30.599 14.7844 30.7478 14.9624 30.8859H6.34068C5.21349 30.8859 4.15349 30.4467 3.35617 29.6495C2.55911 28.8516 2.12011 27.7915 2.12011 26.6646C2.12011 24.344 4.00186 22.4554 6.31918 22.4437H14.966C13.7039 23.4204 12.8889 24.9486 12.8889 26.6646C12.8889 27.4959 13.0751 28.2929 13.4424 29.0331C13.5791 29.3087 13.9134 29.4214 14.189 29.2846C14.4646 29.1479 14.5773 28.8136 14.4405 28.538C14.1503 27.953 14.0031 27.3227 14.0031 26.6646C14.0031 24.3417 15.8887 22.4513 18.2094 22.4435H28.654C28.6587 22.4435 28.6635 22.4432 28.6682 22.4431H29.8796V24.0595H18.2238C16.7879 24.0595 15.6196 25.2282 15.6196 26.6646C15.6196 28.1009 16.7879 29.2696 18.2238 29.2696H29.8797V30.8859ZM28.4313 28.1554H18.2238C17.4022 28.1554 16.7338 27.4866 16.7338 26.6646C16.7338 25.8425 17.4022 25.1737 18.2238 25.1737H28.4313V28.1554Z" fill="black"/>
</g>
<defs>
<clipPath id="clip0_58_2733">
<rect width="32" height="32" fill="white"/>
</clipPath>
</defs>
</svg>
