<svg width="32" height="36" viewBox="0 0 32 36" fill="none" xmlns="http://www.w3.org/2000/svg">
<g clip-path="url(#clip0_54_2210)">
<path fill-rule="evenodd" clip-rule="evenodd" d="M15.0762 0.241119C15.648 -0.0797221 16.352 -0.0797221 16.9229 0.241119C19.7482 1.8268 28.25 6.59984 31.0761 8.18552C31.6479 8.50552 31.9999 9.09836 31.9999 9.74004C31.9999 12.9114 31.9999 22.4566 31.9999 25.628C31.9999 26.2697 31.6479 26.8625 31.0761 27.1834C28.2509 28.7691 19.749 33.5421 16.9229 35.1278C16.3511 35.4486 15.6471 35.4486 15.0762 35.1278C12.2509 33.5421 3.74904 28.7691 0.922945 27.1834C0.351999 26.8625 0 26.2705 0 25.6288C0 22.4575 0 12.9122 0 9.74089C0 9.0992 0.351999 8.50636 0.923787 8.18552C3.7482 6.59984 12.2518 1.8268 15.0762 0.241119Z" fill="#004482"/>
<path fill-rule="evenodd" clip-rule="evenodd" d="M0.255999 26.4457C0.0319999 26.1459 0 25.8612 0 25.4781C0 22.3252 0 12.8347 0 9.68106C0 9.04274 0.351157 8.45327 0.921261 8.13496C3.73641 6.55854 12.2097 1.81329 15.0248 0.236026C15.5949 -0.083131 16.3671 -0.0763942 16.9372 0.242763C19.7524 1.81918 28.197 6.52401 31.0121 8.10043C31.2395 8.22843 31.413 8.38253 31.5679 8.58548L0.255999 26.4457Z" fill="#659AD2"/>
<path fill-rule="evenodd" clip-rule="evenodd" d="M15.9999 5.89502C22.5068 5.89502 27.7893 11.1775 27.7893 17.6845C27.7893 24.1914 22.5068 29.4739 15.9999 29.4739C9.49296 29.4739 4.21045 24.1914 4.21045 17.6845C4.21045 11.1775 9.49296 5.89502 15.9999 5.89502ZM15.9999 11.7897C19.2529 11.7897 21.8946 14.4306 21.8946 17.6845C21.8946 20.9375 19.2529 23.5792 15.9999 23.5792C12.7469 23.5792 10.1052 20.9375 10.1052 17.6845C10.1052 14.4306 12.746 11.7897 15.9999 11.7897Z" fill="white"/>
<path fill-rule="evenodd" clip-rule="evenodd" d="M31.5662 8.59399C32.0008 9.00073 31.9923 9.61378 31.9923 10.0963C31.9923 13.2921 31.9654 22.3818 31.9999 25.5775C32.0033 25.911 31.893 26.2622 31.7279 26.5266L15.6572 17.6845L31.5662 8.59399Z" fill="#00599C"/>
</g>
<defs>
<clipPath id="clip0_54_2210">
<rect width="32" height="35.3684" fill="white"/>
</clipPath>
</defs>
</svg>
