<svg width="32" height="32" viewBox="0 0 32 32" fill="none" xmlns="http://www.w3.org/2000/svg">
<g clip-path="url(#clip0_48_517)">
<path d="M0 16C0 20.2435 1.68571 24.3131 4.68629 27.3137C7.68687 30.3143 11.7565 32 16 32C20.2435 32 24.3131 30.3143 27.3137 27.3137C30.3143 24.3131 32 20.2435 32 16C32 11.7565 30.3143 7.68687 27.3137 4.68629C24.3131 1.68571 20.2435 0 16 0C11.7565 0 7.68687 1.68571 4.68629 4.68629C1.68571 7.68687 0 11.7565 0 16Z" fill="#8DD9FF"/>
<path d="M3.5 12.9044H4.90481V15.75H3.5V12.9044Z" fill="white"/>
<path d="M28.4583 13.9219H30.1874V16.25H28.4583V13.9219Z" fill="#B2B9C9"/>
<path d="M29 18.5H31.8043C31.9344 17.673 31.9998 16.8372 32 16C32 15.7485 31.9926 15.4987 31.9811 15.25H29V18.5Z" fill="#9FC3DD"/>
<path d="M0.0061875 15.8188C0.0053125 15.8795 0 15.939 0 16C0 16.8506 0.0678125 17.6852 0.195688 18.5H3.0625V15.8188H0.0061875Z" fill="#B39191"/>
<path d="M4.5 18.5H7.5L7 13L4.5 14V18.5Z" fill="#B2B9C9"/>
<path d="M19.2969 13.5H22.2031V18.5H19.2969V13.5Z" fill="#7FAAB8"/>
<path d="M7 11H9V18.5H7V11ZM18 12H20V18.5H18V12Z" fill="#EEE1C2"/>
<path d="M13.5 10.7501H15.5V18.5H13.5V10.7501Z" fill="#9FC3DD"/>
<path d="M22.9375 14H25.8438V18.5H22.9375V14Z" fill="#B2B9C9"/>
<path d="M26.0938 14.75H29V18.5H26.0938V14.75Z" fill="#B39191"/>
<path d="M0.195679 18.5C1.39605 26.1489 8.01405 32 16 32C23.9859 32 30.6039 26.1489 31.8043 18.5H0.195679Z" fill="#43AB5F"/>
<path d="M29.5548 24.5C30.6809 22.7077 31.4626 20.6771 31.8043 18.5H0.195679C0.537366 20.6771 1.31912 22.7077 2.44518 24.5H29.5548Z" fill="#71BE63"/>
<path d="M0.975929 21.5H31.0241C31.3761 20.5394 31.6416 19.537 31.8043 18.5H0.195679C0.358429 19.537 0.623866 20.5394 0.975929 21.5Z" fill="#94D75B"/>
<path d="M0.390554 19.5H31.6095C31.6837 19.17 31.7514 18.8376 31.8043 18.5H0.195679C0.248679 18.8376 0.316366 19.17 0.390554 19.5Z" fill="#B0EB81"/>
<path d="M23.3775 30.1973L16.0001 18.5L8.62268 30.1972C10.8305 31.3471 13.3384 32 16.0001 32C18.6617 32 21.1697 31.3471 23.3775 30.1973Z" fill="#674447"/>
<path d="M17.892 21.5L16 18.5L14.1079 21.5H17.892Z" fill="#8C665B"/>
<path d="M18 18.5V9.25L15.5 7.75V18.5" fill="#FDEFDB"/>
<path d="M11 6V18.5H13.5V4.25L11 6ZM21.5 8.125H23.5V18.5H21.5V8.125Z" fill="white"/>
<path d="M9 18.5V16H6V18.5" fill="#A29B91"/>
<path d="M11.875 18.5V12.5H9V18.5" fill="#9FC3DD"/>
<path d="M20 18.5V16.5L17 17V18.5" fill="#88B7C6"/>
<path d="M25 13.5H27V18.5H25V13.5Z" fill="#FDEFDB"/>
<path d="M16.0001 18.5L22.6144 30.5687C22.872 30.4517 23.1265 30.3278 23.3775 30.1973L16.0001 18.5ZM16.0001 18.5L8.62268 30.1972C8.87368 30.3278 9.12813 30.4517 9.38574 30.5687L16.0001 18.5Z" fill="white"/>
<path d="M17.3864 31.9333L16 18.5L16.464 31.9858C16.7738 31.9769 17.0813 31.9596 17.3864 31.9333ZM16 18.5L14.6136 31.9333C14.9188 31.9596 15.2263 31.9769 15.5361 31.9858L16 18.5Z" fill="#E9B668"/>
<path d="M2.5 15H4.5V18.5H2.5V15Z" fill="#9FC3DD"/>
<path d="M20.5938 17.1406H23.9375V18.5H20.5938V17.1406Z" fill="#A29B91"/>
<path d="M13.5 13.6562H14.6136V18.5H13.5V13.6562Z" fill="#B39191"/>
<path d="M7.5 17.5H10.3542V18.5H7.5V17.5Z" fill="#9E8282"/>
<path d="M5.14575 17.5H6.48363V18.5H5.14575V17.5ZM14.0605 17.5H15.1666V18.5H14.0605V17.5ZM23.4999 17.5H25.2812V18.5H23.4999V17.5Z" fill="#EEE1C2"/>
<path d="M17.892 17.7747H19.2969V18.5H17.892V17.7747ZM24.5952 16.875H26V18.5H24.5952V16.875ZM28.2976 17.2708H31.2292V18.5H28.2976V17.2708ZM1.79761 16.875H3.20242V18.5H1.79761V16.875Z" fill="#9E8282"/>
<path d="M11.25 16.875H12.3113V18.5H11.25V16.875ZM21.6725 17.7747H22.7338V18.5H21.6725V17.7747ZM1.43872 17.7747H2.50003V18.5H1.43872V17.7747ZM6.14703 18H8.1866V18.5H6.14703V18Z" fill="#B2B9C9"/>
</g>
<defs>
<clipPath id="clip0_48_517">
<rect width="32" height="32" fill="white"/>
</clipPath>
</defs>
</svg>
