<svg width="32" height="32" viewBox="0 0 32 32" fill="none" xmlns="http://www.w3.org/2000/svg">
<path fill-rule="evenodd" clip-rule="evenodd" d="M2.66663 8C2.66663 5.79087 4.45749 4 6.66663 4H25.3333C27.5425 4 29.3333 5.79087 29.3333 8V20C29.3333 22.2092 27.5425 24 25.3333 24H17.3333V25.3333H20C20.7364 25.3333 21.3333 25.9303 21.3333 26.6667C21.3333 27.4031 20.7364 28 20 28H12C11.2636 28 10.6666 27.4031 10.6666 26.6667C10.6666 25.9303 11.2636 25.3333 12 25.3333H14.6666V24H6.66663C4.45749 24 2.66663 22.2092 2.66663 20V8ZM6.66663 6.66667C5.93025 6.66667 5.33329 7.26363 5.33329 8V20C5.33329 20.7364 5.93025 21.3333 6.66663 21.3333H25.3333C26.0697 21.3333 26.6666 20.7364 26.6666 20V8C26.6666 7.26363 26.0697 6.66667 25.3333 6.66667H6.66663Z" fill="black"/>
</svg>
