<svg width="32" height="32" viewBox="0 0 32 32" fill="none" xmlns="http://www.w3.org/2000/svg">
<path d="M15.9625 9.71248C15.9625 11.95 14.15 13.7625 11.9125 13.7625C9.6875 13.75 7.875 11.9375 7.875 9.71248C7.875 7.47498 9.6875 5.66248 11.9125 5.66248C12.175 5.66248 12.45 5.68748 12.7 5.73748L11.75 7.77498C11.7125 7.77498 11.675 7.77498 11.625 7.77498C10.675 7.77498 9.9 8.54998 9.9 9.49998C9.9 10.45 10.675 11.225 11.625 11.225C12.575 11.225 13.35 10.45 13.35 9.49998C13.35 9.03748 13.1625 8.61248 12.8625 8.29998L13.8625 6.16248C15.1125 6.84998 15.9625 8.17498 15.9625 9.71248ZM31.75 23.8625H28.8375C29.45 23.6875 29.975 23.2875 30.3375 22.75C30.8375 21.975 30.9125 21.025 30.5375 20.1875L27.4375 13.25L26.025 12.7125L27.925 6.19998L26.0625 5.66248L22.0375 19.4875L23.9 20.025L25.5875 14.2375L26.2625 14.4875L29.1 20.825C29.2625 21.175 29.225 21.5625 29.0125 21.8875C28.8 22.2125 28.4625 22.4 28.075 22.4H23.875V23.875H19.9375C19.9 22.4875 18.8125 21.4125 17.475 21.4125H12.0625C12.0625 21.4125 9.6625 15.1 9.6125 15C9.1125 13.6875 8 12.7375 6.5625 12.7375C4.725 12.7375 3.325 14.2625 2.325 16.4625C0.9875 19.4 0.2625 22.925 0.25 26.35L31.75 26.3375V23.8625Z" fill="black"/>
</svg>
