<svg width="32" height="32" viewBox="0 0 32 32" fill="none" xmlns="http://www.w3.org/2000/svg">
<path d="M24 4H5.33333C4.97971 4 4.64057 4.14048 4.39052 4.39052C4.14048 4.64057 4 4.97971 4 5.33333V26.6667C4 27.0203 4.14048 27.3594 4.39052 27.6095C4.64057 27.8595 4.97971 28 5.33333 28H24C24.3536 28 24.6928 27.8595 24.9428 27.6095C25.1929 27.3594 25.3333 27.0203 25.3333 26.6667V5.33333C25.3333 4.97971 25.1929 4.64057 24.9428 4.39052C24.6928 4.14048 24.3536 4 24 4ZM18.6667 21.3333H10.6667V20C10.6667 18.9391 11.0881 17.9217 11.8382 17.1716C12.5884 16.4214 13.6058 16 14.6667 16C14.1392 16 13.6237 15.8436 13.1851 15.5506C12.7466 15.2576 12.4048 14.8411 12.203 14.3538C12.0012 13.8666 11.9483 13.3304 12.0512 12.8131C12.1541 12.2958 12.4081 11.8207 12.781 11.4477C13.154 11.0748 13.6291 10.8208 14.1464 10.7179C14.6637 10.615 15.1999 10.6678 15.6872 10.8697C16.1744 11.0715 16.5909 11.4133 16.8839 11.8518C17.1769 12.2903 17.3333 12.8059 17.3333 13.3333C17.3333 14.0406 17.0524 14.7189 16.5523 15.219C16.0522 15.719 15.3739 16 14.6667 16C15.7275 16 16.7449 16.4214 17.4951 17.1716C18.2452 17.9217 18.6667 18.9391 18.6667 20V21.3333Z" fill="#2CA9BC"/>
<path d="M28 12H25.3333V9.33333H28V12ZM28 17.3333H25.3333V20H28V17.3333ZM14.6667 10.6667C14.1393 10.6667 13.6237 10.8231 13.1851 11.1161C12.7466 11.4091 12.4048 11.8256 12.203 12.3128C12.0012 12.8001 11.9483 13.3363 12.0512 13.8536C12.1541 14.3709 12.4081 14.846 12.781 15.219C13.154 15.5919 13.6291 15.8459 14.1464 15.9488C14.6637 16.0517 15.1999 15.9988 15.6872 15.797C16.1744 15.5952 16.5909 15.2534 16.8839 14.8149C17.1769 14.3763 17.3333 13.8608 17.3333 13.3333C17.3333 12.6261 17.0524 11.9478 16.5523 11.4477C16.0522 10.9476 15.3739 10.6667 14.6667 10.6667ZM18.6667 20C18.6667 18.9391 18.2452 17.9217 17.4951 17.1716C16.7449 16.4214 15.7275 16 14.6667 16C13.6058 16 12.5884 16.4214 11.8382 17.1716C11.0881 17.9217 10.6667 18.9391 10.6667 20V21.3333H18.6667V20ZM25.3333 26.6667V5.33333C25.3333 4.97971 25.1929 4.64057 24.9428 4.39052C24.6928 4.14048 24.3536 4 24 4H5.33333C4.97971 4 4.64057 4.14048 4.39052 4.39052C4.14048 4.64057 4 4.97971 4 5.33333V26.6667C4 27.0203 4.14048 27.3594 4.39052 27.6095C4.64057 27.8595 4.97971 28 5.33333 28H24C24.3536 28 24.6928 27.8595 24.9428 27.6095C25.1929 27.3594 25.3333 27.0203 25.3333 26.6667Z" stroke="black" stroke-width="2.66667" stroke-linecap="round" stroke-linejoin="round"/>
</svg>
