<svg width="32" height="32" viewBox="0 0 32 32" fill="none" xmlns="http://www.w3.org/2000/svg">
<g clip-path="url(#clip0_48_455)">
<path d="M8.00005 6.4C7.15136 6.4 6.33742 6.06286 5.73731 5.46274C5.13719 4.86263 4.80005 4.04869 4.80005 3.2C4.80005 2.35131 5.13719 1.53737 5.73731 0.937258C6.33742 0.337142 7.15136 0 8.00005 0C8.84874 0 9.66267 0.337142 10.2628 0.937258C10.8629 1.53737 11.2 2.35131 11.2 3.2C11.2 4.04869 10.8629 4.86263 10.2628 5.46274C9.66267 6.06286 8.84874 6.4 8.00005 6.4ZM16 6.4C15.1514 6.4 14.3374 6.06286 13.7373 5.46274C13.1372 4.86263 12.8 4.04869 12.8 3.2C12.8 2.35131 13.1372 1.53737 13.7373 0.937258C14.3374 0.337142 15.1514 0 16 0C16.8487 0 17.6627 0.337142 18.2628 0.937258C18.8629 1.53737 19.2 2.35131 19.2 3.2C19.2 4.04869 18.8629 4.86263 18.2628 5.46274C17.6627 6.06286 16.8487 6.4 16 6.4ZM24 6.4C23.1514 6.4 22.3374 6.06286 21.7373 5.46274C21.1372 4.86263 20.8 4.04869 20.8 3.2C20.8 2.35131 21.1372 1.53737 21.7373 0.937258C22.3374 0.337142 23.1514 0 24 0C24.8487 0 25.6627 0.337142 26.2628 0.937258C26.8629 1.53737 27.2 2.35131 27.2 3.2C27.2 4.04869 26.8629 4.86263 26.2628 5.46274C25.6627 6.06286 24.8487 6.4 24 6.4ZM8.00005 14.4C7.15136 14.4 6.33742 14.0629 5.73731 13.4627C5.13719 12.8626 4.80005 12.0487 4.80005 11.2C4.80005 10.3513 5.13719 9.53737 5.73731 8.93726C6.33742 8.33714 7.15136 8 8.00005 8C8.84874 8 9.66267 8.33714 10.2628 8.93726C10.8629 9.53737 11.2 10.3513 11.2 11.2C11.2 12.0487 10.8629 12.8626 10.2628 13.4627C9.66267 14.0629 8.84874 14.4 8.00005 14.4ZM16 14.4C15.1514 14.4 14.3374 14.0629 13.7373 13.4627C13.1372 12.8626 12.8 12.0487 12.8 11.2C12.8 10.3513 13.1372 9.53737 13.7373 8.93726C14.3374 8.33714 15.1514 8 16 8C16.8487 8 17.6627 8.33714 18.2628 8.93726C18.8629 9.53737 19.2 10.3513 19.2 11.2C19.2 12.0487 18.8629 12.8626 18.2628 13.4627C17.6627 14.0629 16.8487 14.4 16 14.4ZM24 14.4C23.1514 14.4 22.3374 14.0629 21.7373 13.4627C21.1372 12.8626 20.8 12.0487 20.8 11.2C20.8 10.3513 21.1372 9.53737 21.7373 8.93726C22.3374 8.33714 23.1514 8 24 8C24.8487 8 25.6627 8.33714 26.2628 8.93726C26.8629 9.53737 27.2 10.3513 27.2 11.2C27.2 12.0487 26.8629 12.8626 26.2628 13.4627C25.6627 14.0629 24.8487 14.4 24 14.4ZM8.00005 22.4C7.15136 22.4 6.33742 22.0629 5.73731 21.4627C5.13719 20.8626 4.80005 20.0487 4.80005 19.2C4.80005 18.3513 5.13719 17.5374 5.73731 16.9373C6.33742 16.3371 7.15136 16 8.00005 16C8.84874 16 9.66267 16.3371 10.2628 16.9373C10.8629 17.5374 11.2 18.3513 11.2 19.2C11.2 20.0487 10.8629 20.8626 10.2628 21.4627C9.66267 22.0629 8.84874 22.4 8.00005 22.4ZM16 22.4C15.1514 22.4 14.3374 22.0629 13.7373 21.4627C13.1372 20.8626 12.8 20.0487 12.8 19.2C12.8 18.3513 13.1372 17.5374 13.7373 16.9373C14.3374 16.3371 15.1514 16 16 16C16.8487 16 17.6627 16.3371 18.2628 16.9373C18.8629 17.5374 19.2 18.3513 19.2 19.2C19.2 20.0487 18.8629 20.8626 18.2628 21.4627C17.6627 22.0629 16.8487 22.4 16 22.4ZM16 32C15.1514 32 14.3374 31.6629 13.7373 31.0627C13.1372 30.4626 12.8 29.6487 12.8 28.8C12.8 27.9513 13.1372 27.1374 13.7373 26.5373C14.3374 25.9371 15.1514 25.6 16 25.6C16.8487 25.6 17.6627 25.9371 18.2628 26.5373C18.8629 27.1374 19.2 27.9513 19.2 28.8C19.2 29.6487 18.8629 30.4626 18.2628 31.0627C17.6627 31.6629 16.8487 32 16 32ZM24 22.4C23.1514 22.4 22.3374 22.0629 21.7373 21.4627C21.1372 20.8626 20.8 20.0487 20.8 19.2C20.8 18.3513 21.1372 17.5374 21.7373 16.9373C22.3374 16.3371 23.1514 16 24 16C24.8487 16 25.6627 16.3371 26.2628 16.9373C26.8629 17.5374 27.2 18.3513 27.2 19.2C27.2 20.0487 26.8629 20.8626 26.2628 21.4627C25.6627 22.0629 24.8487 22.4 24 22.4Z" fill="black"/>
</g>
<defs>
<clipPath id="clip0_48_455">
<rect width="32" height="32" fill="white"/>
</clipPath>
</defs>
</svg>
