<svg width="32" height="32" viewBox="0 0 32 32" fill="none" xmlns="http://www.w3.org/2000/svg">
<g clip-path="url(#clip0_76_1261)">
<path d="M13.36 31.84C5.76 30.48 0 23.92 0 16C0 7.2 7.2 0 16 0C24.8 0 32 7.2 32 16C32 23.92 26.24 30.48 18.64 31.84L17.76 31.12H14.24L13.36 31.84Z" fill="url(#paint0_linear_76_1261)"/>
<path d="M22.2401 20.48L22.9601 16H18.7201V12.88C18.7201 11.6 19.2001 10.64 21.1201 10.64H23.2001V6.55999C22.0801 6.39999 20.8001 6.23999 19.6801 6.23999C16.0001 6.23999 13.4401 8.47999 13.4401 12.48V16H9.44006V20.48H13.4401V31.76C14.3201 31.92 15.2001 32 16.0801 32C16.9601 32 17.8401 31.92 18.7201 31.76V20.48H22.2401Z" fill="white"/>
</g>
<defs>
<linearGradient id="paint0_linear_76_1261" x1="16.0008" y1="30.8871" x2="16.0008" y2="-0.00589422" gradientUnits="userSpaceOnUse">
<stop stop-color="#0062E0"/>
<stop offset="1" stop-color="#19AFFF"/>
</linearGradient>
<clipPath id="clip0_76_1261">
<rect width="32" height="32" fill="white"/>
</clipPath>
</defs>
</svg>
