<svg width="32" height="32" viewBox="0 0 32 32" fill="none" xmlns="http://www.w3.org/2000/svg">
<g clip-path="url(#clip0_48_584)">
<path d="M27.8709 25.2903V23.2257H26.3225V21.1612H24.258V14.0572L25.6092 11.3548H23.7419V9.29026H22.1935V7.22576H16.5161V0H15.4839V0.516181H9.29038V5.67743H15.4839V7.22587H10.8388V9.29037H8.77431V11.3549H6.39083L7.74206 14.0573V21.1613H5.67756V23.2258H4.12913V25.2903H0.00012207V32H31.9999V25.2903H27.8709ZM16.5161 8.25801H21.1613V9.29026H16.5161V8.25801ZM16.5161 10.3225H22.7096V11.3548H16.5161V10.3225ZM16.5161 12.387H23.9391L23.4229 13.4193H16.5161V12.387ZM23.2258 14.4515V21.1612H21.1613V14.4515H23.2258ZM20.1291 14.4515V21.1612H18.0646V14.4515H20.1291ZM16.5161 14.4515H17.0323V21.1612H16.5161V14.4515ZM16.5161 22.1935H24.2581H25.2903V23.2257H16.5161V22.1935ZM16.5161 24.258H26.8386V25.2902H16.5161V24.258ZM10.3226 4.64518V1.54843H15.4839V4.64518H10.3226ZM15.4839 12.387V13.4193H8.57711L8.06093 12.387H15.4839ZM13.9356 14.4515V21.1612H11.8711V14.4515H13.9356ZM10.8388 14.4515V21.1612H8.77431V14.4515H10.8388ZM15.4839 30.9675H13.4194V28.3868H15.4839V30.9675ZM15.4839 27.3547H12.3871V30.9676H1.03237V26.3225H15.4839V27.3547ZM15.4839 25.2902H5.16138V24.258H15.4839V25.2902ZM15.484 23.2257H6.70981V22.1935H7.74206H15.484V23.2257ZM15.484 21.1612H14.9678V14.4515H15.484V21.1612ZM15.484 11.3548H9.80656V10.3225H15.484V11.3548ZM15.484 9.29026H11.8711V8.25801H15.484V9.29026ZM18.5806 30.9676H16.5161V28.387H18.5806V30.9676ZM30.9676 30.9675H19.6129V27.3546H16.5161V26.3223H30.9676V30.9675Z" fill="black"/>
<path d="M14.4517 2.58069H13.4194V3.61294H14.4517V2.58069Z" fill="black"/>
<path d="M12.3871 2.58069H11.3549V3.61294H12.3871V2.58069Z" fill="black"/>
<path d="M3.09695 28.9031H2.0647V29.9353H3.09695V28.9031Z" fill="black"/>
<path d="M5.1614 28.9031H4.12915V29.9353H5.1614V28.9031Z" fill="black"/>
<path d="M7.22585 28.9031H6.1936V29.9353H7.22585V28.9031Z" fill="black"/>
<path d="M25.8064 28.9031H24.7742V29.9353H25.8064V28.9031Z" fill="black"/>
<path d="M27.8709 28.9031H26.8386V29.9353H27.8709V28.9031Z" fill="black"/>
<path d="M29.9354 28.9031H28.9032V29.9353H29.9354V28.9031Z" fill="black"/>
</g>
<defs>
<clipPath id="clip0_48_584">
<rect width="32" height="32" fill="white"/>
</clipPath>
</defs>
</svg>
