<svg width="32" height="32" viewBox="0 0 32 32" fill="none" xmlns="http://www.w3.org/2000/svg">
<path d="M11.7968 24.7373C11.7968 24.7373 10.5762 25.4472 12.6656 25.6874C15.1968 25.9761 16.4904 25.9347 19.2799 25.4068C19.2799 25.4068 20.0132 25.8666 21.0374 26.2649C14.7843 28.9449 6.88535 26.1097 11.7968 24.7373Z" fill="#5382A1"/>
<path d="M11.0328 21.2401C11.0328 21.2401 9.66369 22.2535 11.7546 22.4698C14.4585 22.7488 16.5939 22.7716 20.2888 22.0601C20.2888 22.0601 20.7999 22.5782 21.6035 22.8616C14.0431 25.0723 5.62219 23.0359 11.0328 21.2401Z" fill="#5382A1"/>
<path d="M17.4744 15.3077C19.0151 17.0816 17.0695 18.6779 17.0695 18.6779C17.0695 18.6779 20.9818 16.6583 19.1851 14.1292C17.507 11.7707 16.2201 10.5989 23.1867 6.55847C23.1867 6.55847 12.2515 9.2896 17.4744 15.3077Z" fill="#E76F00"/>
<path d="M25.7446 27.3241C25.7446 27.3241 26.6479 28.0684 24.7498 28.6442C21.1404 29.7376 9.7271 30.0678 6.55654 28.6878C5.41681 28.192 7.55413 27.5039 8.22645 27.3595C8.92762 27.2075 9.3283 27.2358 9.3283 27.2358C8.0608 26.3429 1.1357 28.989 5.81069 29.7469C18.5601 31.8144 29.0516 28.8158 25.7446 27.3241Z" fill="#5382A1"/>
<path d="M12.3839 17.6166C12.3839 17.6166 6.57836 18.9956 10.328 19.4963C11.9112 19.7083 15.0673 19.6603 18.0071 19.414C20.4097 19.2113 22.8222 18.7804 22.8222 18.7804C22.8222 18.7804 21.975 19.1432 21.3621 19.5617C15.4667 21.1122 4.07789 20.3909 7.35658 18.8049C10.1294 17.4646 12.3839 17.6166 12.3839 17.6166Z" fill="#5382A1"/>
<path d="M22.7983 23.4379C28.7912 20.3237 26.0203 17.331 24.0863 17.7342C23.6123 17.8329 23.4009 17.9184 23.4009 17.9184C23.4009 17.9184 23.5769 17.6427 23.913 17.5233C27.7392 16.1782 30.6817 21.4907 22.6779 23.5948C22.6779 23.5948 22.7706 23.512 22.7983 23.4379Z" fill="#5382A1"/>
<path d="M19.1851 0.0343018C19.1851 0.0343018 22.5041 3.35441 16.0372 8.45979C10.8514 12.5552 14.8547 14.8903 16.035 17.5582C13.008 14.8271 10.7866 12.4229 12.2769 10.1852C14.4643 6.9006 20.5242 5.30809 19.1851 0.0343018Z" fill="#E76F00"/>
<path d="M12.9728 31.8765C18.7252 32.2448 27.5588 31.6722 27.768 28.9503C27.768 28.9503 27.3659 29.9822 23.0139 30.8016C18.1041 31.7256 12.0484 31.6177 8.45679 31.0256C8.45679 31.0256 9.19204 31.6341 12.9728 31.8765Z" fill="#5382A1"/>
</svg>
