<svg width="32" height="32" viewBox="0 0 32 32" fill="none" xmlns="http://www.w3.org/2000/svg">
<g clip-path="url(#clip0_48_874)">
<path d="M32.0001 9.26642V9.88842C31.9615 9.91254 31.9084 9.94154 31.865 9.97042L30.6691 10.6793C30.5823 10.7274 30.5003 10.7854 30.3991 10.8384C30.3991 10.8432 30.3942 10.8432 30.3942 10.8432H30.3894C30.0808 11.0217 29.7143 11.2338 29.3864 11.4267C29.1791 11.552 28.9814 11.6629 28.8222 11.7594L27.3129 12.6466L26.7294 12.989L18.8452 17.6231L18.7102 17.7051L18.6186 17.7582L18.3389 17.9221L18.1315 18.0475L17.4034 18.4767L17.0321 18.6937C16.9019 18.766 16.7572 18.819 16.6029 18.8577C16.5884 18.8625 16.5739 18.8625 16.5595 18.8674C16.3811 18.9059 16.1882 18.9204 16.0001 18.9107C15.8121 18.9204 15.6192 18.9059 15.4407 18.8674C15.4262 18.8625 15.4118 18.8625 15.3973 18.8577C15.243 18.819 15.0983 18.766 14.9682 18.6937L14.5969 18.4719L14.2256 18.2549L13.8687 18.0475L13.7096 17.951L13.6614 17.9221L13.3817 17.7582L9.55775 15.511L5.47337 13.1096L4.68737 12.6466L3.17806 11.7594C3.06718 11.6967 2.94181 11.6195 2.80675 11.5424C2.43062 11.3205 1.98218 11.0553 1.61087 10.8431H1.60606C1.60606 10.8431 1.60125 10.8431 1.60125 10.8383C1.5 10.7853 1.418 10.7274 1.33118 10.6792L0.135185 9.97048C0.0917471 9.9416 0.0387471 9.9126 0.00012207 9.88848V9.26648C0.00012207 9.16035 0.0146221 9.0736 0.0435596 8.99642C0.0435596 8.99166 0.0483721 8.99167 0.0483721 8.99167C0.0773096 8.97235 0.106247 8.95785 0.135185 8.93854L0.52581 8.7071L1.33112 8.22973C1.84225 7.9356 2.67168 7.44373 3.178 7.14954L3.23587 7.11573L4.68737 6.26217L6.95856 4.92648L7.61437 4.54067L14.9682 0.215228C15.2527 0.0561034 15.6336 -0.0162091 16.0001 0.00304086C16.3666 -0.0162091 16.7524 0.0561659 17.0321 0.215228L21.9555 3.10854L24.3859 4.54073L25.0176 4.91204L27.3129 6.26223L28.8222 7.14954C28.8657 7.17367 28.9091 7.19773 28.9573 7.22667C29.2659 7.40998 29.6613 7.64623 30.0326 7.85842C30.2641 7.99829 30.4859 8.12366 30.6692 8.22973L31.1659 8.52385L31.4745 8.7071L31.8651 8.93854C31.894 8.95785 31.9229 8.97235 31.9519 8.99167C31.9856 9.06873 32.0001 9.16029 32.0001 9.26642Z" fill="#F6B154"/>
<path d="M32.0001 12.0344V12.6564C31.9615 12.6805 31.9132 12.7095 31.865 12.7384L30.6691 13.4473C30.3894 13.6064 30.0133 13.8282 29.6468 14.0404C29.3479 14.2188 29.0488 14.3924 28.8222 14.5275L26.4449 15.9259L21.5359 18.8144L21.4781 18.8482L21.0296 19.1086L19.9301 19.7548L19.8771 19.7885L17.032 21.4618C16.9018 21.5342 16.7571 21.5872 16.6028 21.6258C16.4147 21.674 16.2026 21.6884 16.0001 21.6789C15.7976 21.6884 15.5854 21.674 15.3973 21.6258C15.243 21.5872 15.0983 21.5342 14.9682 21.4618L12.1279 19.7934L12.1231 19.7885L11.5011 19.422L10.9706 19.1087L10.5173 18.8434L5.77231 16.0514L3.178 14.5276C2.99956 14.4215 2.78256 14.2962 2.55112 14.1563C2.12675 13.9104 1.66381 13.6355 1.33112 13.4474L0.135185 12.7384C0.0917471 12.7095 0.0387471 12.6805 0.00012207 12.6564V12.0344C0.00012207 11.9283 0.0146221 11.8415 0.0435596 11.7644C0.0435596 11.7596 0.0483721 11.7596 0.0483721 11.7596C0.0773096 11.7403 0.106247 11.7258 0.135185 11.7065L0.52581 11.475L1.33112 10.9977C1.41312 10.9495 1.50475 10.8964 1.60118 10.8385C2.00625 10.6022 2.51256 10.3033 2.91768 10.0719C2.92731 10.0622 2.94181 10.0574 2.95143 10.0525C3.03343 10.0043 3.10575 9.95611 3.17812 9.91749L5.03943 8.82286L8.91162 6.5468L10.9996 5.31711L14.9683 2.98317C15.2528 2.82405 15.6337 2.75174 16.0002 2.77099C16.3667 2.75174 16.7525 2.82411 17.0322 2.98317L21.0056 5.31711L22.9827 6.48411L27.125 8.9193L28.8224 9.91749C28.8996 9.96567 28.9912 10.0139 29.0828 10.0718C29.1407 10.1007 29.1986 10.1344 29.2564 10.173C29.6277 10.39 30.0472 10.636 30.3993 10.8384C30.4957 10.8964 30.5874 10.9494 30.6694 10.9976L31.4747 11.475L31.8652 11.7064C31.8942 11.7257 31.9231 11.7402 31.9521 11.7595C31.9856 11.8367 32.0001 11.9283 32.0001 12.0344Z" fill="url(#paint0_linear_48_874)"/>
<path d="M27.3226 6.90361L27.1248 8.9193L26.903 11.2243L26.7294 12.9892L26.4449 15.9259L26.2086 18.3707L26.0157 20.3479L24.7427 20.2225L22.6595 20.0199L19.9302 19.7547L19.7903 19.7451L16.1303 19.3882L13.3768 19.123L12.1376 19.0024L11.3081 18.9204L10.5173 18.8433L6.00855 18.4045L2.17493 18.0332L2.55111 14.1562L2.80661 11.5426L2.94649 10.0862L2.9513 10.0526L3.2358 7.1158L3.48174 4.58899L6.95849 4.92655L10.9995 5.31711L16.111 5.8138L22.9826 6.48411L27.3226 6.90361Z" fill="#7CBE3A"/>
<path d="M30.047 17.98L26.2086 18.3706L21.5889 18.8336L21.478 18.8481L20.7016 18.9251L18.6426 19.1325L16.1303 19.3881L12.1279 19.7932H12.1182L10.7343 19.933L9.2297 20.0873L6.21107 20.3911L6.00851 18.4044L5.77226 16.0511L5.47326 13.1096L5.29488 11.3303L5.03926 8.82277L4.8512 6.95659L8.91145 6.54671L16.1109 5.81371L21.0054 5.31702L25.0175 4.91196L27.3225 4.68052L28.6871 4.54065L28.8559 6.21402L28.9572 7.22659L29.2369 9.9849L29.2562 10.173L29.3864 11.4268L29.6468 14.0404L30.047 17.98Z" fill="url(#paint1_linear_48_874)"/>
<path d="M16.6704 17.3677C16.6704 17.3677 16.5643 17.4304 16.3907 17.522C16.2846 17.5799 16.1496 17.6474 16.0001 17.7341C15.9277 17.7727 15.8458 17.8161 15.7589 17.8595L15.4407 18.0283L15.3972 18.0476L15.296 18.1054L14.5967 18.4719L13.6323 18.9831C13.5455 19.0265 13.4587 19.0747 13.3767 19.1229C13.2272 19.2001 13.0826 19.2821 12.9524 19.3448C12.7209 19.4702 12.5424 19.5666 12.4749 19.6004C12.4219 19.6293 12.2917 19.6969 12.1229 19.7884L12.1181 19.7932C11.8963 19.909 11.6118 20.0633 11.3272 20.2127L7.85531 22.0548L6.35081 22.8554L1.68775 25.3291C1.49968 25.4256 1.29712 25.5365 1.10912 25.6329H0.530622C0.47756 25.6329 0.424497 25.6329 0.381122 25.6282C0.26056 25.6185 0.173747 25.5992 0.106247 25.5702C0.0724971 25.5509 0.0435596 25.5365 0.0242471 25.5172C0.0146221 25.5027 0.00974707 25.4979 0.00493457 25.4834C0.00493457 25.4689 0.00012207 25.4545 0.00493457 25.4352C0.00012207 25.4111 0.00012207 25.3871 0.00012207 25.3581V9.39662C0.00012207 9.30019 0.0146221 9.21825 0.0435596 9.15069C0.0435596 9.14594 0.0483721 9.14594 0.0483721 9.14594C0.11106 9.00125 0.22681 8.91444 0.385935 8.9C0.42931 8.8855 0.472747 8.8855 0.525747 8.89037C0.641497 8.89519 0.776497 8.92894 0.921185 9.01094L2.69093 9.94644L2.88381 10.0525L2.91756 10.0718L2.9465 10.0862L3.70356 10.4864C3.8 10.5347 3.90612 10.5974 4.02181 10.6552C4.41725 10.8626 4.90425 11.1182 5.29487 11.3303C5.38168 11.3737 5.46362 11.4219 5.54081 11.4605L10.445 14.0645L14.8862 16.4226L15.1321 16.5527C15.1417 16.5576 15.1514 16.5576 15.1562 16.5624C15.1756 16.5672 15.19 16.5769 15.2093 16.5866C15.2527 16.6106 15.2961 16.6299 15.3347 16.654C15.3395 16.6588 15.3491 16.6588 15.3539 16.6636C15.4118 16.6926 15.4648 16.7215 15.5179 16.7504C15.7301 16.8613 15.9037 16.9529 16.0001 17.0108C16.0579 17.0349 16.0869 17.0542 16.0965 17.0591C16.1158 17.0735 16.2508 17.141 16.3906 17.223C16.3954 17.223 16.3954 17.2277 16.4002 17.2277C16.4244 17.2374 16.4485 17.2471 16.4677 17.2616C16.5836 17.3194 16.6704 17.3628 16.6704 17.3677Z" fill="#F6BA69"/>
<path d="M31.9916 9.30468C31.9962 9.35375 32 9.45137 32 9.52162V25.2224C32 25.2926 32 25.3628 32 25.3784C32 25.3939 31.9944 25.4396 31.9944 25.448C31.9944 25.4564 31.9944 25.4632 31.9944 25.4807C31.9944 25.4807 31.9944 25.4817 31.9944 25.4829C31.9944 25.4841 31.9469 25.5174 31.8889 25.5569L31.5972 25.6182C31.5274 25.6263 31.4129 25.633 31.3427 25.633H31.0183C30.9481 25.633 30.8397 25.6063 30.7776 25.5737L30.4239 25.3877C30.3617 25.3551 30.2601 25.3015 30.1981 25.2686L20.7846 20.2741C20.7226 20.2412 20.6211 20.1874 20.559 20.1544L19.6359 19.6609C19.574 19.6277 19.4726 19.5736 19.4106 19.5406L18.482 19.0471C18.4201 19.0139 18.3186 18.96 18.2566 18.9271L16.715 18.1108C16.6529 18.0779 16.5514 18.0242 16.4892 17.9914L16.3527 17.9192C16.2906 17.8864 16.1888 17.8331 16.1266 17.8006C16.1266 17.8006 16.0726 17.7725 16.0001 17.7334C15.6154 17.5244 15.3311 17.3721 15.3311 17.3677C15.3311 17.3634 15.4537 17.3025 15.5987 17.2241C15.7436 17.1457 15.7928 17.1192 15.7928 17.1192C15.8546 17.0859 15.9141 17.0538 15.9247 17.0478C15.9355 17.0418 16.0504 16.9832 16.1121 16.9496C16.1121 16.9496 16.4459 16.7671 16.7917 16.5887C16.8084 16.58 16.8084 16.58 16.8084 16.58C16.8268 16.5704 16.8456 16.5607 16.8502 16.5582C16.8547 16.5559 16.9098 16.528 16.9589 16.5017C17.0079 16.4754 17.0989 16.4269 17.1609 16.394L26.3457 11.5214C26.4077 11.4884 26.5092 11.4346 26.5712 11.4015L28.1853 10.5463C28.2474 10.5134 28.3489 10.4597 28.411 10.4267L30.9672 9.07093C31.0293 9.038 31.133 8.98881 31.1977 8.9615C31.1977 8.9615 31.2814 8.923 31.3504 8.911C31.4194 8.899 31.5324 8.89975 31.6014 8.91268L31.8646 9.05087C31.9114 9.10306 31.987 9.25562 31.9916 9.30468Z" fill="#F5A84F"/>
<path d="M32 23.4263V25.3565C32 25.3863 32 25.4118 31.9943 25.4373C32 25.4543 31.9943 25.4671 31.9943 25.4841C31.9943 25.4841 31.9943 25.4841 31.9943 25.4883C31.9543 25.5776 31.7715 25.6328 31.4572 25.6328H2.17566L7.94053 21.7938L7.94622 21.7896L15.1623 16.9855L15.8652 16.5221L16.0536 16.3945L16.6764 16.6667L32 23.4263Z" fill="#E68737"/>
<path d="M32 25.2839V25.3563C32 25.386 32 25.4116 31.9944 25.4371C32 25.4541 31.9944 25.4669 31.9944 25.4839C31.9944 25.4839 31.9944 25.4839 31.9944 25.4882C31.9554 25.5775 31.7769 25.6328 31.4704 25.6328H0.529625C0.223062 25.6328 0.044625 25.5775 0.0055625 25.4882C0.0055625 25.4839 0.0055625 25.4839 0.0055625 25.4839C0.0055625 25.4669 0 25.4541 0.0055625 25.4371C0 25.4116 0 25.386 0 25.3563V25.2839C0.0501875 25.2328 0.122688 25.1818 0.217438 25.1307L15.0968 16.7997C15.1024 16.7997 15.1024 16.7955 15.108 16.7913C15.1248 16.7828 15.1415 16.7742 15.1581 16.7658C15.4647 16.5998 15.7769 16.4849 15.9999 16.4424C16.078 16.4594 16.1616 16.4806 16.2564 16.5147C16.4348 16.57 16.6411 16.6594 16.8417 16.7658C16.864 16.7785 16.8808 16.787 16.9031 16.7997L31.7824 25.1307C31.8773 25.186 31.9498 25.2371 32 25.2839Z" fill="#F6B154"/>
</g>
<defs>
<linearGradient id="paint0_linear_48_874" x1="16.0001" y1="21.6816" x2="16.0001" y2="2.76797" gradientUnits="userSpaceOnUse">
<stop stop-color="#F3982E"/>
<stop offset="0.7685" stop-color="#F5A33B"/>
</linearGradient>
<linearGradient id="paint1_linear_48_874" x1="17.4491" y1="4.54067" x2="17.4491" y2="20.3911" gradientUnits="userSpaceOnUse">
<stop stop-color="#FDFCE8"/>
<stop offset="0.9704" stop-color="#FBDCC6"/>
</linearGradient>
<clipPath id="clip0_48_874">
<rect width="32" height="32" fill="white"/>
</clipPath>
</defs>
</svg>
