<svg width="32" height="20" viewBox="0 0 32 20" fill="none" xmlns="http://www.w3.org/2000/svg">
<g clip-path="url(#clip0_65_1630)">
<path d="M15.8164 19.5984C15.7108 19.5984 15.6059 19.5707 15.5133 19.5174L14.5485 18.9462C14.4044 18.8656 14.4747 18.8371 14.5223 18.8207C14.7144 18.7534 14.7534 18.7382 14.9585 18.6218C14.98 18.6095 15.0082 18.6138 15.0303 18.6268L15.7715 19.0666C15.7982 19.0811 15.8362 19.0811 15.861 19.0666L18.7509 17.3985C18.7777 17.3834 18.795 17.3522 18.795 17.3204V13.9857C18.795 13.9524 18.7777 13.9227 18.7503 13.9061L15.8616 12.2394C15.8348 12.2235 15.7994 12.2235 15.7726 12.2394L12.8845 13.9061C12.8565 13.922 12.8387 13.9531 12.8387 13.9849V17.3197C12.8387 17.3515 12.8561 17.3819 12.8835 17.3971L13.6749 17.8543C14.1046 18.0691 14.3672 17.8159 14.3672 17.5613V14.2699C14.3672 14.2229 14.4041 14.1868 14.4511 14.1868H14.8171C14.8627 14.1868 14.9003 14.2229 14.9003 14.2699V17.5627C14.9003 18.1357 14.5878 18.4648 14.0446 18.4648C13.8775 18.4648 13.7458 18.4648 13.3783 18.284L12.6202 17.847C12.4329 17.7385 12.3171 17.536 12.3171 17.3197V13.9849C12.3171 13.7679 12.4329 13.5654 12.6202 13.4583L15.513 11.7895C15.696 11.6861 15.9391 11.6861 16.1206 11.7895L19.0098 13.459C19.1964 13.5668 19.3129 13.7686 19.3129 13.9857V17.3204C19.3129 17.5367 19.1964 17.7385 19.0098 17.847L16.1206 19.5159C16.0281 19.5694 15.9232 19.5969 15.8161 19.5969" fill="#689F63"/>
<path d="M16.709 17.3006C15.4446 17.3006 15.1794 16.7202 15.1794 16.2334C15.1794 16.1871 15.2168 16.1502 15.2631 16.1502H15.6364C15.6776 16.1502 15.7124 16.1802 15.7189 16.2209C15.7753 16.6013 15.9431 16.7931 16.7077 16.7931C17.3168 16.7931 17.5758 16.6555 17.5758 16.3325C17.5758 16.1466 17.502 16.0085 16.5558 15.9159C15.7644 15.8377 15.2754 15.6634 15.2754 15.0305C15.2754 14.4474 15.7673 14.1002 16.5913 14.1002C17.5164 14.1002 17.9751 14.4214 18.0329 15.1115C18.0351 15.1353 18.0264 15.1585 18.0105 15.1759C17.9946 15.1925 17.9722 15.2026 17.949 15.2026H17.5736C17.5345 15.2026 17.5005 15.1751 17.4926 15.1375C17.4022 14.7375 17.1837 14.6095 16.5898 14.6095C15.925 14.6095 15.8476 14.8409 15.8476 15.0145C15.8476 15.225 15.9388 15.2865 16.8358 15.4052C17.7241 15.5231 18.1458 15.6895 18.1458 16.3137C18.1458 16.9431 17.6206 17.304 16.7048 17.304M20.2248 13.7674H20.3217C20.4013 13.7674 20.4165 13.7117 20.4165 13.6792C20.4165 13.5938 20.3579 13.5938 20.3253 13.5938H20.2255L20.2248 13.7674ZM20.1069 13.494H20.3217C20.3955 13.494 20.5402 13.494 20.5402 13.6589C20.5402 13.774 20.4664 13.7978 20.4222 13.8123C20.5083 13.8181 20.5141 13.8745 20.5257 13.9541C20.5315 14.004 20.5409 14.0901 20.5582 14.119H20.4259C20.4222 14.0901 20.402 13.9309 20.402 13.9223C20.3933 13.8868 20.381 13.8694 20.3369 13.8694H20.2277V14.1197H20.1069V13.494ZM19.8486 13.8051C19.8486 14.064 20.0577 14.2738 20.3145 14.2738C20.5734 14.2738 20.7825 14.0597 20.7825 13.8051C20.7825 13.5454 20.5705 13.3392 20.3137 13.3392C20.0606 13.3392 19.8479 13.5425 19.8479 13.8043M20.8722 13.8065C20.8722 14.1132 20.6212 14.3635 20.3152 14.3635C20.0114 14.3635 19.7582 14.1161 19.7582 13.8065C19.7582 13.4911 20.0172 13.2495 20.3152 13.2495C20.6154 13.2495 20.8715 13.4918 20.8715 13.8065" fill="#689F63"/>
<path fill-rule="evenodd" clip-rule="evenodd" d="M6.86743 6.55014C6.86743 6.41704 6.79726 6.29479 6.68239 6.2286L3.61846 4.46574C3.56674 4.43536 3.5088 4.41944 3.45006 4.41727H3.41838C3.35964 4.41944 3.3017 4.43536 3.24911 4.46574L0.185329 6.2286C0.0711801 6.29515 0 6.4174 0 6.5505L0.00672738 11.2987C0.00672738 11.3646 0.040726 11.426 0.098596 11.4586C0.155019 11.4933 0.22591 11.4933 0.282333 11.4586L2.10379 10.4155C2.21881 10.3471 2.28897 10.2261 2.28897 10.0943V7.87609C2.28897 7.74371 2.35914 7.62146 2.4738 7.55563L3.24925 7.10902C3.30683 7.07575 3.37006 7.05925 3.43444 7.05925C3.49781 7.05925 3.56247 7.0756 3.61846 7.10895L4.39356 7.55541C4.50829 7.62124 4.57874 7.74349 4.57874 7.87587V10.094C4.57874 10.2256 4.64985 10.3471 4.76429 10.4151L6.58459 11.4575C6.64174 11.4915 6.71284 11.4915 6.76977 11.4575C6.82591 11.425 6.8615 11.3635 6.8615 11.2976L6.86743 6.55014ZM21.3254 9.02235C21.3254 9.0554 21.3078 9.086 21.2791 9.10235L20.2267 9.70897C20.1981 9.72539 20.1628 9.72539 20.1343 9.70897L19.0818 9.10235C19.0529 9.08593 19.0355 9.05533 19.0355 9.02235V7.80737C19.0355 7.77424 19.0529 7.74371 19.0811 7.72707L20.1329 7.11944C20.1618 7.1028 20.1973 7.1028 20.2262 7.11944L21.2787 7.72707C21.3076 7.74371 21.325 7.77424 21.325 7.80737L21.3254 9.02235ZM21.6097 0.0234217C21.5522 -0.00855147 21.4823 -0.00768342 21.4256 0.0253748C21.3692 0.05865 21.3343 0.119413 21.3343 0.185241V4.88718C21.3343 4.93347 21.3097 4.97615 21.2697 4.9993C21.2299 5.02245 21.1803 5.02245 21.1402 4.9993L20.3727 4.55724C20.2584 4.49113 20.1176 4.49113 20.0029 4.55724L16.938 6.32611C16.8235 6.39194 16.7528 6.51419 16.7528 6.64584V10.1846C16.7528 10.317 16.8235 10.4385 16.938 10.505L20.0029 12.2751C20.1173 12.341 20.2582 12.341 20.373 12.2751L23.438 10.5043C23.5523 10.4378 23.6232 10.3162 23.6232 10.1839V1.36449C23.6232 1.23023 23.5501 1.10675 23.4329 1.04114L21.6097 0.0234217ZM31.816 7.77539C31.9298 7.70928 31.9999 7.58717 31.9999 7.45552V6.59788C31.9999 6.46594 31.9298 6.3442 31.8157 6.27779L28.7703 4.50986C28.6553 4.44331 28.5142 4.44331 28.3992 4.50986L25.335 6.27851C25.2199 6.34506 25.1498 6.46659 25.1498 6.59897V10.1363C25.1498 10.2694 25.2214 10.3923 25.3364 10.4582L28.3811 12.1935C28.4932 12.2579 28.6307 12.2587 28.7442 12.1957L30.5859 11.1721C30.6438 11.1396 30.6807 11.0781 30.6807 11.0116C30.6807 10.945 30.6453 10.8828 30.5874 10.8502L27.5044 9.08087C27.4465 9.04832 27.4111 8.98683 27.4111 8.921V7.81134C27.4111 7.74508 27.4458 7.68403 27.5036 7.65104L28.4628 7.09766C28.52 7.06439 28.5902 7.06439 28.6473 7.09766L29.6072 7.65104C29.6644 7.6836 29.6998 7.74508 29.6998 7.81091V8.6833C29.6998 8.74913 29.7353 8.81061 29.7924 8.84389C29.8495 8.87644 29.9204 8.87644 29.9776 8.84317L31.816 7.77539Z" fill="#333333"/>
<path fill-rule="evenodd" clip-rule="evenodd" d="M28.5398 7.60994C28.5615 7.59714 28.5887 7.59714 28.6107 7.60994L29.1988 7.94921C29.2208 7.96194 29.2342 7.98538 29.2342 8.01069V8.68994C29.2342 8.71526 29.2208 8.7387 29.1988 8.75143L28.6107 9.09069C28.5887 9.1035 28.5615 9.1035 28.5398 9.09069L27.9521 8.75143C27.9296 8.7387 27.9159 8.71526 27.9159 8.68994V8.01069C27.9159 7.98538 27.9289 7.96194 27.9513 7.94921L28.5398 7.60994Z" fill="#689F63"/>
<mask id="mask0_65_1630" style="mask-type:luminance" maskUnits="userSpaceOnUse" x="8" y="4" width="8" height="9">
<path d="M11.6264 4.52746L8.57882 6.28649C8.46468 6.35232 8.39465 6.47385 8.39465 6.60521V10.1257C8.39465 10.2572 8.46468 10.3786 8.57882 10.4444L11.6266 12.2049C11.7406 12.2705 11.881 12.2705 11.9948 12.2049L15.0421 10.4444C15.1557 10.3786 15.2258 10.2571 15.2258 10.1257V6.60521C15.2258 6.47385 15.1557 6.35232 15.0414 6.28649L11.9945 4.52746C11.9374 4.49469 11.8737 4.47827 11.8101 4.47827C11.7464 4.47827 11.6828 4.49469 11.6256 4.52746" fill="white"/>
</mask>
<g mask="url(#mask0_65_1630)">
<path d="M18.3054 5.98788L9.71788 1.77856L5.3147 10.761L13.902 14.9705L18.3054 5.98788Z" fill="url(#paint0_linear_65_1630)"/>
</g>
<mask id="mask1_65_1630" style="mask-type:luminance" maskUnits="userSpaceOnUse" x="8" y="4" width="8" height="9">
<path d="M8.47009 10.3493C8.49924 10.3872 8.5357 10.4199 8.5786 10.4445L11.1929 11.9546L11.6283 12.2049C11.6934 12.2425 11.7677 12.2584 11.8406 12.253C11.8649 12.251 11.8892 12.2465 11.9129 12.2397L15.1272 6.35435C15.1026 6.32759 15.0738 6.30516 15.0415 6.28636L13.046 5.13402L11.9912 4.52711C11.9612 4.50975 11.9288 4.49745 11.8957 4.48877L8.47009 10.3493Z" fill="white"/>
</mask>
<g mask="url(#mask1_65_1630)">
<path d="M4.7572 7.233L10.8209 15.4399L18.8402 9.51503L12.7762 1.30835L4.7572 7.233Z" fill="url(#paint1_linear_65_1630)"/>
</g>
<mask id="mask2_65_1630" style="mask-type:luminance" maskUnits="userSpaceOnUse" x="8" y="4" width="8" height="9">
<path d="M11.7736 4.48038C11.7225 4.48544 11.6725 4.50136 11.6264 4.52754L8.58752 6.28151L11.8644 12.2501C11.91 12.2436 11.9548 12.2284 11.9953 12.2049L15.0429 10.4445C15.137 10.39 15.2013 10.2977 15.2209 10.1931L11.8803 4.48638C11.8557 4.48153 11.8311 4.479 11.8058 4.479C11.7957 4.479 11.7856 4.47951 11.7754 4.48045" fill="white"/>
</mask>
<g mask="url(#mask2_65_1630)">
<path d="M8.5874 4.479V12.2502H15.2195V4.479H8.5874Z" fill="url(#paint2_linear_65_1630)"/>
</g>
</g>
<defs>
<linearGradient id="paint0_linear_65_1630" x1="14.0091" y1="3.8766" x2="9.60619" y2="12.8584" gradientUnits="userSpaceOnUse">
<stop offset="0.3" stop-color="#3E863D"/>
<stop offset="0.5" stop-color="#55934F"/>
<stop offset="0.8" stop-color="#5AAD45"/>
</linearGradient>
<linearGradient id="paint1_linear_65_1630" x1="7.82538" y1="11.3835" x2="15.845" y2="5.45793" gradientUnits="userSpaceOnUse">
<stop offset="0.57" stop-color="#3E863D"/>
<stop offset="0.72" stop-color="#619857"/>
<stop offset="1" stop-color="#76AC64"/>
</linearGradient>
<linearGradient id="paint2_linear_65_1630" x1="8.58964" y1="8.36483" x2="15.2208" y2="8.36483" gradientUnits="userSpaceOnUse">
<stop offset="0.16" stop-color="#6BBF47"/>
<stop offset="0.38" stop-color="#79B461"/>
<stop offset="0.47" stop-color="#75AC64"/>
<stop offset="0.7" stop-color="#659E5A"/>
<stop offset="0.9" stop-color="#3E863D"/>
</linearGradient>
<clipPath id="clip0_65_1630">
<rect width="32" height="19.5983" fill="white"/>
</clipPath>
</defs>
</svg>
