<svg width="32" height="32" viewBox="0 0 32 32" fill="none" xmlns="http://www.w3.org/2000/svg">
<path fill-rule="evenodd" clip-rule="evenodd" d="M16 2.66675C8.63996 2.66675 2.66663 8.64008 2.66663 16.0001C2.66663 23.3601 8.63996 29.3334 16 29.3334C23.36 29.3334 29.3333 23.3601 29.3333 16.0001C29.3333 8.64008 23.36 2.66675 16 2.66675ZM9.42663 24.3734C9.99996 23.1734 13.4933 22.0001 16 22.0001C18.5066 22.0001 22.0133 23.1734 22.5733 24.3734C20.76 25.8134 18.48 26.6667 16 26.6667C13.52 26.6667 11.24 25.8134 9.42663 24.3734ZM16 19.3334C17.9466 19.3334 22.5733 20.1201 24.48 22.4401C25.84 20.6534 26.6666 18.4267 26.6666 16.0001C26.6666 10.1201 21.88 5.33341 16 5.33341C10.12 5.33341 5.33329 10.1201 5.33329 16.0001C5.33329 18.4267 6.15996 20.6534 7.51996 22.4401C9.42663 20.1201 14.0533 19.3334 16 19.3334ZM16 8.00008C13.4133 8.00008 11.3333 10.0801 11.3333 12.6667C11.3333 15.2534 13.4133 17.3334 16 17.3334C18.5866 17.3334 20.6666 15.2534 20.6666 12.6667C20.6666 10.0801 18.5866 8.00008 16 8.00008ZM14 12.6667C14 13.7734 14.8933 14.6667 16 14.6667C17.1066 14.6667 18 13.7734 18 12.6667C18 11.5601 17.1066 10.6667 16 10.6667C14.8933 10.6667 14 11.5601 14 12.6667Z" fill="black"/>
</svg>
