<svg width="32" height="32" viewBox="0 0 32 32" fill="none" xmlns="http://www.w3.org/2000/svg">
<path d="M18.6666 2.66663C18.6666 2.66663 21.6 2.93329 25.3333 6.66663C29.0666 10.4 29.3333 13.3333 29.3333 13.3333" stroke="#1C274C" stroke-width="2" stroke-linecap="round"/>
<path d="M18.9426 7.38086C18.9426 7.38086 20.2626 7.75799 22.2425 9.73789C24.2224 11.7178 24.5996 13.0377 24.5996 13.0377" stroke="#1C274C" stroke-width="2" stroke-linecap="round"/>
<path d="M5.34211 10.5775C5.24566 13.1217 5.88955 17.4423 10.2236 21.7764C11.2693 22.822 12.3141 23.6528 13.3334 24.3103M7.38379 6.58301C9.24106 4.72575 12.2043 4.97529 13.3835 7.08827L14.2488 8.63884C15.0298 10.0381 14.7163 11.8738 13.4863 13.1038C13.4863 13.1038 11.9945 14.5958 14.6994 17.3007C17.4034 20.0047 18.8963 18.5138 18.8963 18.5138C20.1263 17.2838 21.9619 16.9703 23.3612 17.7512L24.9118 18.6166C27.0248 19.7958 27.2743 22.759 25.4171 24.6163C24.3011 25.7323 22.9339 26.6007 21.4226 26.6579C20.3372 26.6991 18.9284 26.6055 17.3334 26.1482" stroke="#1C274C" stroke-width="2" stroke-linecap="round"/>
</svg>
