<svg width="32" height="29" viewBox="0 0 32 29" fill="none" xmlns="http://www.w3.org/2000/svg">
<g clip-path="url(#clip0_65_1671)">
<path d="M15.9999 17.0874C17.5751 17.0874 18.8521 15.8104 18.8521 14.2352C18.8521 12.66 17.5751 11.3831 15.9999 11.3831C14.4247 11.3831 13.1477 12.66 13.1477 14.2352C13.1477 15.8104 14.4247 17.0874 15.9999 17.0874Z" fill="#61DAFB"/>
<path d="M16 20.0788C24.4524 20.0788 31.3044 17.4626 31.3044 14.2353C31.3044 11.0081 24.4524 8.39185 16 8.39185C7.54767 8.39185 0.695679 11.0081 0.695679 14.2353C0.695679 17.4626 7.54767 20.0788 16 20.0788Z" stroke="#61DAFB" stroke-width="1.3913"/>
<path d="M10.9394 17.1572C15.1656 24.4772 20.8573 29.1031 23.6522 27.4895C26.4471 25.8758 25.2868 18.6337 21.0606 11.3138C16.8344 3.99381 11.1427 -0.632079 8.34785 0.981554C5.55295 2.59519 6.71324 9.83729 10.9394 17.1572Z" stroke="#61DAFB" stroke-width="1.3913"/>
<path d="M10.9394 11.3136C6.71321 18.6335 5.55293 25.8756 8.34782 27.4892C11.1427 29.1029 16.8344 24.477 21.0606 17.157C25.2868 9.83707 26.4471 2.59497 23.6522 0.981337C20.8573 -0.632295 15.1656 3.9936 10.9394 11.3136Z" stroke="#61DAFB" stroke-width="1.3913"/>
</g>
<defs>
<clipPath id="clip0_65_1671">
<rect width="32" height="28.4709" fill="white"/>
</clipPath>
</defs>
</svg>
