<svg width="32" height="34" viewBox="0 0 32 34" fill="none" xmlns="http://www.w3.org/2000/svg">
<g clip-path="url(#clip0_65_1375)">
<path fill-rule="evenodd" clip-rule="evenodd" d="M7.3 24.6003C6.5 24.4336 5.53333 24.167 4.73333 23.4336C2.9 21.8003 2.33333 19.1003 1.06667 19.8003C-0.233332 20.5003 -0.199999 24.867 3.86667 26.2003C5.26667 26.667 6.53334 26.667 7.56667 26.6336C7.83333 26.6336 10.1333 26.4003 10.9333 25.267C11.7333 24.1336 11.1667 23.8336 10.9 23.7003C10.6 23.5336 8.43333 24.8003 7.3 24.6003Z" fill="#FFAB19" stroke="#001026" stroke-width="0.4" stroke-linecap="round" stroke-linejoin="round"/>
<path fill-rule="evenodd" clip-rule="evenodd" d="M1.26667 19.867C0.600007 20.067 0.266673 21.467 0.600007 22.6336C0.93334 23.8003 1.46667 24.4003 1.90001 24.8336C1.83334 24.6003 1.70001 23.867 2.26667 23.4336C2.96667 22.867 4.20001 23.167 4.20001 23.167C4.20001 23.167 3.16667 21.9003 2.63334 21.0003C2.10001 20.2336 1.93334 19.7336 1.26667 19.867Z" fill="white"/>
<path fill-rule="evenodd" clip-rule="evenodd" d="M12.5667 27.1668C11.9667 27.5668 9.90002 29.0335 7.26668 29.8668L7.13335 29.9002C7.00002 29.9335 6.93335 30.1002 7.00002 30.2335C7.56668 31.0335 8.60002 32.6335 6.76668 33.2002C5.00002 33.7668 1.70002 29.0668 3.10002 27.8335C3.73335 27.3668 4.30002 27.6002 4.60002 27.7335C4.76668 27.8002 4.93335 27.8002 5.10002 27.7668C5.50002 27.6335 6.23335 27.3668 6.80002 27.0668C8.23335 26.3335 8.56668 26.0335 9.23335 25.5335C9.90002 25.0335 11.4333 23.8002 12.6667 24.8668C13.7333 25.7668 13.1334 26.7668 12.5667 27.1668Z" fill="#FFAB19" stroke="#001026" stroke-width="0.4" stroke-linecap="round" stroke-linejoin="round"/>
<path fill-rule="evenodd" clip-rule="evenodd" d="M17.8666 20.2336C18.0333 20.3669 20.0666 22.7669 20.7333 22.1669C21.5333 21.4669 22.6333 20.1002 23.8333 21.2002C25.0333 22.3002 22.7666 24.1669 21.8 24.6669C19.5 25.7002 17.6333 23.7336 17.2333 23.2002C16.8333 22.6669 16.1333 21.7669 16.1333 20.9002C16.1666 19.9669 17.3 19.7336 17.8666 20.2336Z" fill="#FFAB19" stroke="#001026" stroke-width="0.4" stroke-linecap="round" stroke-linejoin="round"/>
<path fill-rule="evenodd" clip-rule="evenodd" d="M15.4 25.567C15.8 25.267 16.2 24.767 16.7334 24.0003C17.1667 23.367 17.6334 22.1337 17.6334 22.1337C17.9334 21.3003 18.1334 19.7003 17.0334 19.7337C16.3 19.767 15.6334 19.667 14.5 19.5003C12.5 19.1003 12.1334 18.8337 11.3 20.2003C10.4 21.8003 8.10005 22.967 10.9334 25.7337C10.9334 25.7337 12.5667 27.0003 14.5334 28.9337C15.8667 30.2337 17.9667 32.1003 18.7 32.7337C18.8667 32.867 19.0667 32.9337 19.2667 32.967C22.5 33.267 24.9 32.9337 24.9 31.5003C24.9 29.1003 20.1334 29.9337 20.1334 29.9337C20.1334 29.9337 18.6 28.6337 17.9 28.0003L15.4 25.567Z" fill="#FFAB19" stroke="#001026" stroke-width="0.4" stroke-linecap="round" stroke-linejoin="round"/>
<path fill-rule="evenodd" clip-rule="evenodd" d="M16.8667 23.3337C16.8667 23.3337 17.5 22.5004 16.0667 21.6004C14.5667 20.6337 14 21.7004 13.4 22.5004C12.7334 23.5337 13.4 24.0337 14.0667 24.6337C14.6 25.1337 15.1 25.5337 15.1 25.5337C15.1 25.5337 16.1334 24.8337 16.8667 23.3337Z" fill="white"/>
<path fill-rule="evenodd" clip-rule="evenodd" d="M10.0667 22.8003C10.8 23.7336 11.9334 24.9003 10.5 25.867C8.53337 26.967 6.90004 23.6336 6.56671 22.467C6.26671 21.4337 7.13337 20.767 7.86671 20.2003C9.30004 19.167 10.5 18.2336 11.8334 18.7336C13.5 19.3336 12.3 20.667 11.4667 21.267C10.9667 21.6336 10.4667 22.0337 10.1 22.267C10 22.4337 9.96671 22.6336 10.0667 22.8003Z" fill="#FFAB19" stroke="#001026" stroke-width="0.4" stroke-linecap="round" stroke-linejoin="round"/>
<path fill-rule="evenodd" clip-rule="evenodd" d="M17.7 3.00042C16.9333 2.86708 16.1333 2.80042 15.2 2.86708C13.6333 2.93375 12.1333 3.50042 12.1333 3.50042L8.10001 0.867082C7.96668 0.800415 7.80001 0.900415 7.83335 1.03375L8.53335 7.00041C8.73335 6.73375 5.00001 11.2671 7.36668 15.0671C9.73335 18.8671 14.7667 20.5671 21.0333 19.3337C27.3 18.1004 28.7667 14.5004 28.3667 12.6004C27.9667 10.7004 25.6 10.0004 25.6 10.0004C25.6 10.0004 25.5667 8.50041 24.5 6.66708C23.8667 5.56708 21.7333 4.00041 21.7333 4.00041L20.8667 0.433748C20.8333 0.300415 20.6667 0.267082 20.5667 0.333748L17.7 3.00042Z" fill="#FFAB19" stroke="#001026" stroke-width="0.4"/>
<path fill-rule="evenodd" clip-rule="evenodd" d="M25.5 10.1337C25.5 10.1337 27.8 10.7337 28.2 12.6337C28.6 14.5337 27 17.967 20.8 19.167C12.7333 20.8337 8.89999 16.0337 11.1333 12.5004C13.3667 8.93369 17.2 11.967 20 11.767C22.4 11.6004 22.6667 9.50035 25.5 10.1337Z" fill="white"/>
<path fill-rule="evenodd" clip-rule="evenodd" d="M14.9999 13.7004C14.9999 13.567 15.1333 13.467 15.2666 13.5004C15.8999 13.7337 17.6999 14.267 19.6999 14.4004C21.4999 14.5004 22.5666 14.4004 23.0666 14.3004C23.2333 14.267 23.3666 14.4337 23.2999 14.6004C22.9999 15.5004 21.7333 18.0004 18.2333 17.8004C15.1999 17.467 14.8999 15.3337 14.9999 13.7004Z" fill="white" stroke="#001026" stroke-width="0.4" stroke-linecap="round" stroke-linejoin="round"/>
<path d="M27.6667 11.8004C27.6667 11.8004 30.0667 11.767 31.6334 10.5004" stroke="#001026" stroke-width="0.4" stroke-linecap="round" stroke-linejoin="round"/>
<path d="M27.8 13.7671C27.8 13.7671 29.1 14.4004 31.2 14.2338" stroke="#001026" stroke-width="0.4" stroke-linecap="round" stroke-linejoin="round"/>
<path fill-rule="evenodd" clip-rule="evenodd" d="M19.8666 10.9004C20.5666 10.9004 21.3 10.9671 21.3333 11.2004C21.3666 11.6671 20.8666 12.6004 20.3333 12.6337C19.7333 12.7004 18.3333 11.8671 18.3333 11.3337C18.3 10.9337 19.2 10.9004 19.8666 10.9004Z" fill="#001026" stroke="#001026" stroke-width="0.4" stroke-linecap="round" stroke-linejoin="round"/>
<path d="M4.8667 10.4004C4.8667 10.4004 7.73337 11.3337 8.90003 12.3671" stroke="#001026" stroke-width="0.4" stroke-linecap="round" stroke-linejoin="round"/>
<path d="M5.09998 13.7337C5.09998 13.7337 7.56664 14.1004 8.99998 13.5337" stroke="#001026" stroke-width="0.4" stroke-linecap="round" stroke-linejoin="round"/>
<path fill-rule="evenodd" clip-rule="evenodd" d="M23.8 7.00034C24.7667 8.50034 24.8 10.2003 23.8667 10.8003C22.9333 11.4003 21.4 10.7003 20.4 9.20034C19.4333 7.70034 19.4 6.00034 20.3333 5.40034C21.2667 4.76701 22.8333 5.50034 23.8 7.00034Z" fill="white" stroke="#001026" stroke-width="0.4" stroke-linecap="round" stroke-linejoin="round"/>
<path fill-rule="evenodd" clip-rule="evenodd" d="M23.6667 8.90031C23.6667 9.26698 23.4 9.56698 23.0667 9.56698C22.7333 9.56698 22.4667 9.26698 22.4667 8.90031C22.4667 8.53364 22.7333 8.23364 23.0667 8.23364C23.4 8.23364 23.6667 8.53364 23.6667 8.90031Z" fill="#001026"/>
<path fill-rule="evenodd" clip-rule="evenodd" d="M15.5333 7.93376C16.5333 9.40043 16.4666 11.2004 15.5666 11.8338C14.4666 12.4671 12.9999 12.0004 11.9999 10.5338C10.9666 9.0671 10.8999 7.1671 11.9333 6.43376C12.9666 5.6671 14.5333 6.4671 15.5333 7.93376Z" fill="white" stroke="#001026" stroke-width="0.4" stroke-linecap="round" stroke-linejoin="round"/>
<path fill-rule="evenodd" clip-rule="evenodd" d="M15.3333 9.86711C15.3333 10.2338 15.0666 10.5338 14.7333 10.5338C14.4 10.5338 14.1333 10.2338 14.1333 9.86711C14.1333 9.50044 14.4 9.20044 14.7333 9.20044C15.0666 9.23377 15.3333 9.50044 15.3333 9.86711Z" fill="#001026"/>
</g>
<defs>
<clipPath id="clip0_65_1375">
<rect width="32" height="33.6667" fill="white"/>
</clipPath>
</defs>
</svg>
