<svg width="32" height="32" viewBox="0 0 32 32" fill="none" xmlns="http://www.w3.org/2000/svg">
<path d="M28 22.6666H4V26.6666H28V22.6666Z" fill="#B7B7B7"/>
<path d="M28 17.3333V25.3333C28 25.6869 27.8595 26.0261 27.6095 26.2761C27.3594 26.5262 27.0203 26.6666 26.6667 26.6666H5.33333C4.97971 26.6666 4.64057 26.5262 4.39052 26.2761C4.14048 26.0261 4 25.6869 4 25.3333V7.99996C4 7.64634 4.14048 7.3072 4.39052 7.05715C4.64057 6.8071 4.97971 6.66663 5.33333 6.66663H10.6667" stroke="black" stroke-width="2.66667" stroke-linecap="round" stroke-linejoin="round"/>
<path d="M21.3333 4L28 9.33333L21.3333 14.6667V12C21.3333 12 14.6667 12 12 16C12 16 13.3333 8 21.3333 6.66667V4Z" stroke="#2CA9BC" stroke-width="2.66667" stroke-linecap="round" stroke-linejoin="round"/>
</svg>
