<svg width="32" height="32" viewBox="0 0 32 32" fill="none" xmlns="http://www.w3.org/2000/svg">
<path fill-rule="evenodd" clip-rule="evenodd" d="M14.0288 14.9632C13.6916 14.9563 13.364 14.8499 13.0871 14.6575C12.8102 14.4651 12.5962 14.1951 12.4721 13.8816C12.348 13.568 12.3193 13.2248 12.3895 12.895C12.4598 12.5651 12.6259 12.2634 12.8669 12.0276C13.108 11.7918 13.4134 11.6325 13.7447 11.5696C14.076 11.5067 14.4185 11.543 14.7292 11.6741C15.04 11.8051 15.3051 12.025 15.4913 12.3061C15.6775 12.5873 15.7765 12.9172 15.776 13.2544C15.7701 13.7124 15.5829 14.1494 15.2554 14.4697C14.9279 14.79 14.4868 14.9675 14.0288 14.9632Z" fill="black"/>
<path fill-rule="evenodd" clip-rule="evenodd" d="M24.7456 17.824L22.4192 14.368V14.08C22.4193 12.0503 21.6158 10.1031 20.1845 8.66405C18.7532 7.22496 16.8105 6.41097 14.7808 6.39997C14.1689 6.39546 13.5589 6.47076 12.9664 6.62397C11.2991 7.03209 9.81759 7.98948 8.76054 9.34199C7.70349 10.6945 7.1324 12.3634 7.13923 14.08C7.09463 15.5201 7.49462 16.9391 8.28483 18.144C9.62243 20.064 10.5248 21.6 9.97123 23.68C9.9057 23.9105 9.89769 24.1535 9.9479 24.3878C9.99811 24.6221 10.105 24.8406 10.2592 25.024C10.3946 25.2077 10.5724 25.356 10.7774 25.4563C10.9825 25.5566 11.2087 25.6059 11.4368 25.6H17.7088C18.06 25.6022 18.401 25.4821 18.6731 25.2602C18.9453 25.0382 19.1316 24.7284 19.2 24.384C19.2369 24.2591 19.2584 24.1301 19.264 24C19.2926 23.8189 19.3858 23.6543 19.5264 23.5366C19.667 23.4189 19.8455 23.3562 20.0288 23.36H20.48C20.815 23.3705 21.1439 23.2692 21.415 23.0723C21.6862 22.8753 21.8841 22.5938 21.9776 22.272C22.2558 21.2702 22.4147 20.239 22.4512 19.2H24.1056C24.2564 19.1816 24.4 19.1249 24.5227 19.0352C24.6454 18.9456 24.7431 18.8261 24.8064 18.688C24.8684 18.5501 24.8953 18.3991 24.8847 18.2483C24.8741 18.0976 24.8263 17.9518 24.7456 17.824ZM18.3968 15.1456L18.0768 15.648C18.0129 15.7386 17.9287 15.813 17.8309 15.8652C17.7331 15.9174 17.6245 15.9461 17.5136 15.9488C17.4346 15.9438 17.3569 15.9265 17.2832 15.8976L16.4352 15.5776C16.0735 15.889 15.6552 16.128 15.2032 16.2816L15.0496 17.2128C15.023 17.3625 14.944 17.4978 14.8268 17.5945C14.7095 17.6913 14.5616 17.7431 14.4096 17.7408H13.7696C13.6176 17.7431 13.4697 17.6913 13.3525 17.5945C13.2352 17.4978 13.1562 17.3625 13.1296 17.2128L12.976 16.2816C12.5416 16.1542 12.1391 15.936 11.7952 15.6416L10.896 15.9616C10.8224 15.9905 10.7446 16.0078 10.6656 16.0128C10.5524 16.0112 10.4414 15.9811 10.3429 15.9251C10.2445 15.8692 10.1617 15.7892 10.1024 15.6928L9.78243 15.1648C9.70639 15.035 9.68004 14.882 9.70829 14.7343C9.73655 14.5866 9.81747 14.4541 9.93603 14.3616L10.6816 13.7568C10.6322 13.534 10.6064 13.3066 10.6048 13.0784C10.6075 12.8629 10.6332 12.6483 10.6816 12.4384L9.95203 11.8016C9.83232 11.7099 9.75052 11.5773 9.72219 11.4292C9.69387 11.2811 9.721 11.1278 9.79843 10.9984L10.1184 10.4704C10.1753 10.3718 10.2576 10.2901 10.3566 10.2339C10.4556 10.1776 10.5678 10.1488 10.6816 10.1504C10.7606 10.1554 10.8384 10.1726 10.912 10.2016L11.8112 10.5216C12.1593 10.2241 12.5597 9.99401 12.992 9.84317L13.12 8.95997C13.1464 8.81227 13.2263 8.67945 13.3443 8.5868C13.4623 8.49416 13.6103 8.44816 13.76 8.45757H14.4C14.546 8.44783 14.6907 8.49051 14.808 8.57791C14.9253 8.66531 15.0076 8.79171 15.04 8.93437L15.1936 9.83997C15.6237 9.97776 16.0242 10.1948 16.3744 10.48L17.2736 10.16C17.3473 10.131 17.425 10.1138 17.504 10.1088C17.6173 10.1103 17.7283 10.1405 17.8267 10.1964C17.9252 10.2524 18.0079 10.3323 18.0672 10.4288L18.3872 10.9568C18.4644 11.0884 18.492 11.2434 18.465 11.3936C18.438 11.5438 18.3582 11.6794 18.24 11.776L17.4944 12.3808C17.5453 12.6033 17.571 12.8309 17.5712 13.0592C17.5686 13.2746 17.5429 13.4892 17.4944 13.6992L18.24 14.3168C18.3622 14.4124 18.4454 14.5492 18.4743 14.7017C18.5031 14.8541 18.4756 15.0119 18.3968 15.1456Z" fill="black"/>
</svg>
