<svg width="32" height="32" viewBox="0 0 32 32" fill="none" xmlns="http://www.w3.org/2000/svg">
<g clip-path="url(#clip0_65_1506)">
<mask id="mask0_65_1506" style="mask-type:luminance" maskUnits="userSpaceOnUse" x="0" y="0" width="32" height="32">
<path d="M32 0H0V32H32V0Z" fill="white"/>
</mask>
<g mask="url(#mask0_65_1506)">
<g filter="url(#filter0_dii_65_1506)">
<path d="M0 14.9593C0 6.69752 6.69754 0 14.9593 0H16.5203C25.0695 0 32 6.93048 32 15.4797V16.5203C32 25.0695 25.0695 32 16.5203 32H16C7.16345 32 0 24.8366 0 16V14.9593Z" fill="url(#paint0_radial_65_1506)"/>
</g>
<g filter="url(#filter1_dd_65_1506)">
<mask id="mask1_65_1506" style="mask-type:luminance" maskUnits="userSpaceOnUse" x="10" y="17" width="15" height="8">
<path d="M23.1822 17.4995C23.798 17.544 24.2672 18.0858 24.1246 18.6865C23.8529 19.8308 23.3108 20.9085 22.5324 21.8378C21.5072 23.0618 20.1181 23.973 18.5407 24.4564C16.9634 24.9399 15.2685 24.9736 13.6706 24.5535C12.4555 24.2341 11.3379 23.6631 10.3973 22.888C9.91635 22.4916 9.97471 21.7663 10.4605 21.3758C10.9046 21.0188 11.5447 21.0775 11.9943 21.4277C12.6577 21.9444 13.4323 22.3272 14.2702 22.5474C15.4449 22.8562 16.6911 22.8314 17.8509 22.476C19.0106 22.1205 20.032 21.4506 20.7858 20.5505C21.2974 19.9398 21.6702 19.2417 21.8863 18.4994C22.0564 17.9148 22.5749 17.4556 23.1822 17.4995Z" fill="white"/>
</mask>
<g mask="url(#mask1_65_1506)">
<path d="M23.1822 17.4995C23.798 17.544 24.2672 18.0858 24.1246 18.6865C23.8529 19.8308 23.3108 20.9085 22.5324 21.8378C21.5072 23.0618 20.1181 23.973 18.5407 24.4564C16.9634 24.9399 15.2685 24.9736 13.6706 24.5535C12.4555 24.2341 11.3379 23.6631 10.3973 22.888C9.91635 22.4916 9.97471 21.7663 10.4605 21.3758C10.9046 21.0188 11.5447 21.0775 11.9943 21.4277C12.6577 21.9444 13.4323 22.3272 14.2702 22.5474C15.4449 22.8562 16.6911 22.8314 17.8509 22.476C19.0106 22.1205 20.032 21.4506 20.7858 20.5505C21.2974 19.9398 21.6702 19.2417 21.8863 18.4994C22.0564 17.9148 22.5749 17.4556 23.1822 17.4995Z" stroke="url(#paint1_linear_65_1506)" stroke-width="2.86179" stroke-linejoin="round"/>
</g>
</g>
<g filter="url(#filter2_d_65_1506)">
<path d="M25.176 13.9838C25.7119 13.9838 26.1569 13.5444 26.0419 13.0209C25.8594 12.1901 25.4427 11.4213 24.8319 10.8104C23.9903 9.96879 22.8488 9.49597 21.6586 9.49597C20.4683 9.49597 19.3268 9.96879 18.4852 10.8104C17.9058 11.3898 17.5013 12.1113 17.3054 12.8929C17.1574 13.4832 17.664 13.9838 18.2727 13.9838C18.8431 13.9838 19.2863 13.5 19.5287 12.9836C19.6435 12.7394 19.8003 12.5144 19.9948 12.32C20.4361 11.8787 21.0346 11.6308 21.6586 11.6308C22.2826 11.6308 22.8811 11.8787 23.3223 12.32C23.4852 12.4829 23.6217 12.6672 23.7292 12.8662C24.0346 13.4322 24.5328 13.9838 25.176 13.9838Z" fill="#C4C4C4"/>
<path d="M25.176 13.9838C25.7119 13.9838 26.1569 13.5444 26.0419 13.0209C25.8594 12.1901 25.4427 11.4213 24.8319 10.8104C23.9903 9.96879 22.8488 9.49597 21.6586 9.49597C20.4683 9.49597 19.3268 9.96879 18.4852 10.8104C17.9058 11.3898 17.5013 12.1113 17.3054 12.8929C17.1574 13.4832 17.664 13.9838 18.2727 13.9838C18.8431 13.9838 19.2863 13.5 19.5287 12.9836C19.6435 12.7394 19.8003 12.5144 19.9948 12.32C20.4361 11.8787 21.0346 11.6308 21.6586 11.6308C22.2826 11.6308 22.8811 11.8787 23.3223 12.32C23.4852 12.4829 23.6217 12.6672 23.7292 12.8662C24.0346 13.4322 24.5328 13.9838 25.176 13.9838Z" fill="#221725"/>
</g>
<g filter="url(#filter3_d_65_1506)">
<g filter="url(#filter4_i_65_1506)">
<path fill-rule="evenodd" clip-rule="evenodd" d="M11.3102 15.938C12.4947 15.102 13.2683 13.7226 13.2683 12.1626C13.2683 9.61218 11.2008 7.54468 8.65042 7.54468C6.10003 7.54468 4.03253 9.61218 4.03253 12.1626C4.03253 13.6898 4.77394 15.0439 5.91647 15.8846C6.6144 15.23 7.55308 14.8292 8.58538 14.8292C9.6455 14.8292 10.6069 15.252 11.3102 15.938Z" fill="#FAFAFA"/>
</g>
<g filter="url(#filter5_d_65_1506)">
<path d="M11.1043 12.1614C11.1043 10.8055 10.0052 9.7063 8.64925 9.7063C7.29334 9.7063 6.19415 10.8055 6.19415 12.1614C6.19415 13.5173 7.29334 14.6165 8.64925 14.6165C10.0052 14.6165 11.1043 13.5173 11.1043 12.1614Z" fill="#2C2F36"/>
</g>
</g>
<g filter="url(#filter6_dii_65_1506)">
<path fill-rule="evenodd" clip-rule="evenodd" d="M3.51221 11.5415C3.51221 9.87988 3.51221 9.04906 3.82533 8.43593C4.15382 7.7927 4.71338 7.29747 5.39175 7.04957C6.03839 6.81328 6.86305 6.91423 8.51239 7.11615L11.3246 7.46042C12.5035 7.60475 13.093 7.67691 13.555 7.91876C14.1772 8.24447 14.6578 8.7876 14.9055 9.44476C15.0599 9.85448 15.0848 10.3389 15.0887 11.187H16.7813C16.7852 10.3389 16.8099 9.85448 16.9644 9.44476C17.2121 8.7876 17.6928 8.24447 18.3149 7.91876C18.777 7.67691 19.3664 7.60475 20.5453 7.46042L23.3575 7.11615C25.0068 6.91423 25.8316 6.81328 26.4782 7.04957C27.1566 7.29747 27.716 7.7927 28.0446 8.43593C28.3577 9.04906 28.3577 9.87988 28.3577 11.5415C28.3577 13.0307 28.3577 13.7754 28.0873 14.3523C27.8035 14.9584 27.3162 15.4457 26.7101 15.7295C26.1332 16 25.3885 16 23.8993 16H21.0662C19.7393 16 19.0759 16 18.5522 15.7843C17.8469 15.4937 17.2868 14.9336 16.9962 14.2283C16.8765 13.9376 16.8233 13.6041 16.7995 13.1382H15.0704C15.0466 13.6041 14.9934 13.9376 14.8738 14.2283C14.5832 14.9336 14.023 15.4937 13.3177 15.7843C12.794 16 12.1306 16 10.8038 16H7.97063C6.48139 16 5.73677 16 5.15975 15.7295C4.55379 15.4457 4.06651 14.9584 3.78258 14.3523C3.51221 13.7754 3.51221 13.0307 3.51221 11.5415Z" fill="url(#paint2_linear_65_1506)"/>
</g>
<g filter="url(#filter7_f_65_1506)">
<path d="M23.2463 14.358C24.1591 14.8598 25.7387 14.0322 26.7744 12.5094C27.81 10.9866 27.9096 9.34535 26.9967 8.8435C26.0838 8.34165 24.5043 9.16927 23.4686 10.6921C22.433 12.2148 22.3334 13.8561 23.2463 14.358Z" fill="white" fill-opacity="0.58"/>
</g>
<g filter="url(#filter8_f_65_1506)">
<path d="M9.71785 14.358C10.6307 14.8598 12.2103 14.0322 13.2459 12.5094C14.2816 10.9866 14.3811 9.34535 13.4682 8.8435C12.5554 8.34165 10.9758 9.16927 9.94017 10.6921C8.90452 12.2148 8.80499 13.8561 9.71785 14.358Z" fill="white" fill-opacity="0.58"/>
</g>
</g>
</g>
<defs>
<filter id="filter0_dii_65_1506" x="-3.5122" y="-3.12195" width="44.4878" height="50.8618" filterUnits="userSpaceOnUse" color-interpolation-filters="sRGB">
<feFlood flood-opacity="0" result="BackgroundImageFix"/>
<feColorMatrix in="SourceAlpha" type="matrix" values="0 0 0 0 0 0 0 0 0 0 0 0 0 0 0 0 0 0 127 0" result="hardAlpha"/>
<feOffset dx="2.73171" dy="9.49593"/>
<feGaussianBlur stdDeviation="3.12195"/>
<feComposite in2="hardAlpha" operator="out"/>
<feColorMatrix type="matrix" values="0 0 0 0 0.682806 0 0 0 0 0.0652778 0 0 0 0 0.783333 0 0 0 0.14 0"/>
<feBlend mode="normal" in2="BackgroundImageFix" result="effect1_dropShadow_65_1506"/>
<feBlend mode="normal" in="SourceGraphic" in2="effect1_dropShadow_65_1506" result="shape"/>
<feColorMatrix in="SourceAlpha" type="matrix" values="0 0 0 0 0 0 0 0 0 0 0 0 0 0 0 0 0 0 127 0" result="hardAlpha"/>
<feOffset dy="-3.12195"/>
<feGaussianBlur stdDeviation="2.01626"/>
<feComposite in2="hardAlpha" operator="arithmetic" k2="-1" k3="1"/>
<feColorMatrix type="matrix" values="0 0 0 0 0.943639 0 0 0 0 0.223611 0 0 0 0 0.958333 0 0 0 0.44 0"/>
<feBlend mode="normal" in2="shape" result="effect2_innerShadow_65_1506"/>
<feColorMatrix in="SourceAlpha" type="matrix" values="0 0 0 0 0 0 0 0 0 0 0 0 0 0 0 0 0 0 127 0" result="hardAlpha"/>
<feOffset dx="-1.43089" dy="3.90244"/>
<feGaussianBlur stdDeviation="2.01626"/>
<feComposite in2="hardAlpha" operator="arithmetic" k2="-1" k3="1"/>
<feColorMatrix type="matrix" values="0 0 0 0 1 0 0 0 0 0.766722 0 0 0 0 0.693056 0 0 0 0.68 0"/>
<feBlend mode="normal" in2="effect2_innerShadow_65_1506" result="effect3_innerShadow_65_1506"/>
</filter>
<filter id="filter1_dd_65_1506" x="8.2438" y="13.0738" width="19.796" height="13.2936" filterUnits="userSpaceOnUse" color-interpolation-filters="sRGB">
<feFlood flood-opacity="0" result="BackgroundImageFix"/>
<feColorMatrix in="SourceAlpha" type="matrix" values="0 0 0 0 0 0 0 0 0 0 0 0 0 0 0 0 0 0 127 0" result="hardAlpha"/>
<feOffset dy="-2.60163"/>
<feGaussianBlur stdDeviation="0.910569"/>
<feComposite in2="hardAlpha" operator="out"/>
<feColorMatrix type="matrix" values="0 0 0 0 0.3625 0 0 0 0 0.3625 0 0 0 0 0.3625 0 0 0 0.97 0"/>
<feBlend mode="normal" in2="BackgroundImageFix" result="effect1_dropShadow_65_1506"/>
<feColorMatrix in="SourceAlpha" type="matrix" values="0 0 0 0 0 0 0 0 0 0 0 0 0 0 0 0 0 0 127 0" result="hardAlpha"/>
<feOffset dx="1.19675" dy="-1.17073"/>
<feGaussianBlur stdDeviation="1.34634"/>
<feComposite in2="hardAlpha" operator="out"/>
<feColorMatrix type="matrix" values="0 0 0 0 0.462111 0 0 0 0 0.203767 0 0 0 0 0.504167 0 0 0 0.35 0"/>
<feBlend mode="normal" in2="effect1_dropShadow_65_1506" result="effect2_dropShadow_65_1506"/>
<feBlend mode="normal" in="SourceGraphic" in2="effect2_dropShadow_65_1506" result="shape"/>
</filter>
<filter id="filter2_d_65_1506" x="15.7835" y="5.63256" width="14.1661" height="9.87328" filterUnits="userSpaceOnUse" color-interpolation-filters="sRGB">
<feFlood flood-opacity="0" result="BackgroundImageFix"/>
<feColorMatrix in="SourceAlpha" type="matrix" values="0 0 0 0 0 0 0 0 0 0 0 0 0 0 0 0 0 0 127 0" result="hardAlpha"/>
<feOffset dx="1.19675" dy="-1.17073"/>
<feGaussianBlur stdDeviation="1.34634"/>
<feComposite in2="hardAlpha" operator="out"/>
<feColorMatrix type="matrix" values="0 0 0 0 0.462111 0 0 0 0 0.203767 0 0 0 0 0.504167 0 0 0 0.35 0"/>
<feBlend mode="normal" in2="BackgroundImageFix" result="effect1_dropShadow_65_1506"/>
<feBlend mode="normal" in="SourceGraphic" in2="effect1_dropShadow_65_1506" result="shape"/>
</filter>
<filter id="filter3_d_65_1506" x="1.95123" y="5.9837" width="13.3984" height="12.5559" filterUnits="userSpaceOnUse" color-interpolation-filters="sRGB">
<feFlood flood-opacity="0" result="BackgroundImageFix"/>
<feColorMatrix in="SourceAlpha" type="matrix" values="0 0 0 0 0 0 0 0 0 0 0 0 0 0 0 0 0 0 127 0" result="hardAlpha"/>
<feOffset dy="0.520325"/>
<feGaussianBlur stdDeviation="1.04065"/>
<feColorMatrix type="matrix" values="0 0 0 0 0 0 0 0 0 0 0 0 0 0 0 0 0 0 0.25 0"/>
<feBlend mode="normal" in2="BackgroundImageFix" result="effect1_dropShadow_65_1506"/>
<feBlend mode="normal" in="SourceGraphic" in2="effect1_dropShadow_65_1506" result="shape"/>
</filter>
<filter id="filter4_i_65_1506" x="4.03253" y="7.08289" width="9.23578" height="8.8551" filterUnits="userSpaceOnUse" color-interpolation-filters="sRGB">
<feFlood flood-opacity="0" result="BackgroundImageFix"/>
<feBlend mode="normal" in="SourceGraphic" in2="BackgroundImageFix" result="shape"/>
<feColorMatrix in="SourceAlpha" type="matrix" values="0 0 0 0 0 0 0 0 0 0 0 0 0 0 0 0 0 0 127 0" result="hardAlpha"/>
<feOffset dy="-0.461789"/>
<feGaussianBlur stdDeviation="1.15447"/>
<feComposite in2="hardAlpha" operator="arithmetic" k2="-1" k3="1"/>
<feColorMatrix type="matrix" values="0 0 0 0 0 0 0 0 0 0 0 0 0 0 0 0 0 0 0.25 0"/>
<feBlend mode="normal" in2="shape" result="effect1_innerShadow_65_1506"/>
</filter>
<filter id="filter5_d_65_1506" x="4.42956" y="2.29498" width="11.2628" height="12.3215" filterUnits="userSpaceOnUse" color-interpolation-filters="sRGB">
<feFlood flood-opacity="0" result="BackgroundImageFix"/>
<feColorMatrix in="SourceAlpha" type="matrix" values="0 0 0 0 0 0 0 0 0 0 0 0 0 0 0 0 0 0 127 0" result="hardAlpha"/>
<feOffset dx="1.41168" dy="-4.23504"/>
<feGaussianBlur stdDeviation="1.58814"/>
<feComposite in2="hardAlpha" operator="out"/>
<feColorMatrix type="matrix" values="0 0 0 0 0.462111 0 0 0 0 0.203767 0 0 0 0 0.504167 0 0 0 0.35 0"/>
<feBlend mode="normal" in2="BackgroundImageFix" result="effect1_dropShadow_65_1506"/>
<feBlend mode="normal" in="SourceGraphic" in2="effect1_dropShadow_65_1506" result="shape"/>
</filter>
<filter id="filter6_dii_65_1506" x="1.2148" y="5.35174" width="29.4403" height="14.5066" filterUnits="userSpaceOnUse" color-interpolation-filters="sRGB">
<feFlood flood-opacity="0" result="BackgroundImageFix"/>
<feColorMatrix in="SourceAlpha" type="matrix" values="0 0 0 0 0 0 0 0 0 0 0 0 0 0 0 0 0 0 127 0" result="hardAlpha"/>
<feOffset dy="1.56098"/>
<feGaussianBlur stdDeviation="1.1487"/>
<feColorMatrix type="matrix" values="0 0 0 0 0 0 0 0 0 0 0 0 0 0 0 0 0 0 0.25 0"/>
<feBlend mode="normal" in2="BackgroundImageFix" result="effect1_dropShadow_65_1506"/>
<feBlend mode="normal" in="SourceGraphic" in2="effect1_dropShadow_65_1506" result="shape"/>
<feColorMatrix in="SourceAlpha" type="matrix" values="0 0 0 0 0 0 0 0 0 0 0 0 0 0 0 0 0 0 127 0" result="hardAlpha"/>
<feOffset dy="1.43089"/>
<feGaussianBlur stdDeviation="0.650406"/>
<feComposite in2="hardAlpha" operator="arithmetic" k2="-1" k3="1"/>
<feColorMatrix type="matrix" values="0 0 0 0 0.3625 0 0 0 0 0.3625 0 0 0 0 0.3625 0 0 0 0.97 0"/>
<feBlend mode="normal" in2="shape" result="effect2_innerShadow_65_1506"/>
<feColorMatrix in="SourceAlpha" type="matrix" values="0 0 0 0 0 0 0 0 0 0 0 0 0 0 0 0 0 0 127 0" result="hardAlpha"/>
<feOffset dx="0.130081" dy="-1.56098"/>
<feGaussianBlur stdDeviation="0.780488"/>
<feComposite in2="hardAlpha" operator="arithmetic" k2="-1" k3="1"/>
<feColorMatrix type="matrix" values="0 0 0 0 0.462111 0 0 0 0 0.203767 0 0 0 0 0.504167 0 0 0 0.35 0"/>
<feBlend mode="normal" in2="effect2_innerShadow_65_1506" result="effect3_innerShadow_65_1506"/>
</filter>
<filter id="filter7_f_65_1506" x="20.5405" y="6.61548" width="9.16205" height="9.97046" filterUnits="userSpaceOnUse" color-interpolation-filters="sRGB">
<feFlood flood-opacity="0" result="BackgroundImageFix"/>
<feBlend mode="normal" in="SourceGraphic" in2="BackgroundImageFix" result="shape"/>
<feGaussianBlur stdDeviation="1.04065" result="effect1_foregroundBlur_65_1506"/>
</filter>
<filter id="filter8_f_65_1506" x="7.01202" y="6.61548" width="9.16205" height="9.97046" filterUnits="userSpaceOnUse" color-interpolation-filters="sRGB">
<feFlood flood-opacity="0" result="BackgroundImageFix"/>
<feBlend mode="normal" in="SourceGraphic" in2="BackgroundImageFix" result="shape"/>
<feGaussianBlur stdDeviation="1.04065" result="effect1_foregroundBlur_65_1506"/>
</filter>
<radialGradient id="paint0_radial_65_1506" cx="0" cy="0" r="1" gradientUnits="userSpaceOnUse" gradientTransform="translate(14.1789 2.0813) rotate(86.5167) scale(29.9741)">
<stop offset="0.576389" stop-color="#FFBB0C"/>
<stop offset="1" stop-color="#FFC907"/>
</radialGradient>
<linearGradient id="paint1_linear_65_1506" x1="11.3688" y1="16.0388" x2="16.5859" y2="24.4414" gradientUnits="userSpaceOnUse">
<stop stop-color="#402C41"/>
<stop offset="1" stop-color="#0C0B0E"/>
</linearGradient>
<linearGradient id="paint2_linear_65_1506" x1="16.0618" y1="12.0673" x2="16.0618" y2="13.511" gradientUnits="userSpaceOnUse">
<stop stop-color="#201721"/>
<stop offset="1" stop-color="#2B1F2C"/>
</linearGradient>
<clipPath id="clip0_65_1506">
<rect width="32" height="32" fill="white"/>
</clipPath>
</defs>
</svg>
