<svg width="32" height="32" viewBox="0 0 32 32" fill="none" xmlns="http://www.w3.org/2000/svg">
<g clip-path="url(#clip0_54_2249)">
<path d="M8 0C6.9 0 6 0.9 6 2V30C6 31.1 6.9 32 8 32H28C29.1 32 30 31.1 30 30V8L22 0H8Z" fill="#E2E5E7"/>
<path d="M24 8H30L22 0V6C22 7.1 22.9 8 24 8Z" fill="#B0B7BD"/>
<path d="M30 14L24 8H30V14Z" fill="#CAD1D8"/>
<path d="M26 26C26 26.55 25.55 27 25 27H3C2.45 27 2 26.55 2 26V16C2 15.45 2.45 15 3 15H25C25.55 15 26 15.45 26 16V26Z" fill="#F15642"/>
<path d="M6.13301 19.6669C6.31701 18.1149 8.65901 17.8359 9.76201 18.6839C10.306 19.1229 9.73101 19.8189 9.25001 19.4669C8.65901 19.0919 7.31501 18.9159 7.14701 19.7459C6.93101 21.0579 10.41 20.3069 10.353 22.4339C10.297 24.4649 7.35501 24.5119 6.25101 23.6009C5.98701 23.3849 5.99501 23.0339 6.14001 22.8169C6.34701 22.6099 6.57901 22.5379 6.85101 22.7619C7.50701 23.2089 9.19401 23.5449 9.31401 22.4089C9.21101 21.2269 5.88501 21.9379 6.13301 19.6669Z" fill="white"/>
<path d="M16.593 23.089L16.721 23.24C17.248 23.72 16.561 24.504 16.025 24L15.754 23.785C15.338 24.072 14.851 24.209 14.203 24.209C12.796 24.209 11.188 23.24 11.188 21.273C11.188 19.306 12.787 18.307 14.203 18.307C15.689 18.307 17.145 19.306 17.145 21.273C17.145 22.033 16.952 22.594 16.593 23.089ZM16.112 21.273C16.112 20.002 15.113 19.355 14.202 19.355C13.219 19.355 12.251 20.001 12.251 21.273C12.251 22.242 13.074 23.161 14.202 23.161C14.489 23.161 14.769 23.089 15.049 23.017L14.138 22.177C13.714 21.665 14.386 20.937 14.921 21.409L15.825 22.312C16.024 22.033 16.112 21.689 16.112 21.273Z" fill="white"/>
<path d="M18.323 18.947C18.323 18.683 18.547 18.459 18.827 18.459C19.083 18.459 19.299 18.684 19.299 18.947V22.953H21.474C22.257 22.953 22.274 24 21.474 24H18.828C18.548 24 18.324 23.801 18.324 23.513V18.947H18.323Z" fill="white"/>
<path d="M25 27H6V28H25C25.55 28 26 27.55 26 27V26C26 26.55 25.55 27 25 27Z" fill="#CAD1D8"/>
</g>
<defs>
<clipPath id="clip0_54_2249">
<rect width="32" height="32" fill="white"/>
</clipPath>
</defs>
</svg>
