<svg width="32" height="32" viewBox="0 0 32 32" fill="none" xmlns="http://www.w3.org/2000/svg">
<g clip-path="url(#clip0_48_977)">
<path d="M20.1992 12.1472C20.6863 12.6862 20.9157 13.4387 20.7655 14.193H22.9411V12.1472H20.1992Z" fill="black"/>
<path d="M24.4494 12.1472H23.8264V14.193H24.4494C24.6159 14.193 24.751 14.058 24.751 13.8914V12.4487C24.751 12.2823 24.6159 12.1472 24.4494 12.1472Z" fill="black"/>
<path d="M25.2888 9.20959H24.4888V11.2555H25.2888C25.4553 11.2555 25.5904 11.1204 25.5904 10.9538V9.51122C25.5903 9.34466 25.4553 9.20959 25.2888 9.20959Z" fill="black"/>
<path d="M19.2822 9.20959C19.1157 9.20959 18.9806 9.34466 18.9806 9.51122V10.9539C18.9806 11.1205 19.1157 11.2555 19.2822 11.2555H23.6887V9.20966L19.2822 9.20959Z" fill="black"/>
<path d="M24.187 6.16711H19.8134V8.21298H24.187C24.3536 8.21298 24.4886 8.07792 24.4886 7.91136V6.46874C24.4886 6.30218 24.3536 6.16711 24.187 6.16711Z" fill="black"/>
<path d="M18.1807 6.16711C18.0141 6.16711 17.879 6.30218 17.879 6.46874V7.91142C17.879 8.07798 18.0141 8.21304 18.1807 8.21304H18.9806V6.16711H18.1807Z" fill="black"/>
<path d="M19.2822 3.88525C19.1157 3.88525 18.9806 4.02032 18.9806 4.18688V5.15744C18.9806 5.32394 19.1157 5.459 19.2822 5.459H23.6887V3.88525H19.2822Z" fill="black"/>
<path d="M25.2888 3.88525H24.2986V5.459H25.2888C25.4553 5.459 25.5904 5.32394 25.5904 5.15737V4.18682C25.5903 4.02019 25.4553 3.88525 25.2888 3.88525Z" fill="black"/>
<path d="M12.8406 5.23973C14.2875 5.23973 15.4604 4.06678 15.4604 2.61986C15.4604 1.17295 14.2875 0 12.8406 0C11.3937 0 10.2207 1.17295 10.2207 2.61986C10.2207 4.06678 11.3937 5.23973 12.8406 5.23973Z" fill="black"/>
<path d="M18.7776 12.5044L14.524 11.3593L13.1548 8.74184L15.292 10.4359L15.454 8.46453C15.5407 7.40915 14.7555 6.48335 13.7002 6.3966L10.2925 6.11653C9.23718 6.02978 8.31137 6.81497 8.22462 7.87034L7.61912 17.6908L8.42212 22.9268L6.46431 30.0677C6.24119 30.8814 6.72 31.722 7.53375 31.9451C8.34649 32.1682 9.18793 31.6899 9.41111 30.8756L11.455 23.4208C11.5118 23.214 11.5242 22.9973 11.4917 22.7852L10.75 17.9482L11.3444 17.9971L13.167 22.9661L11.6445 30.1553C11.4435 31.1044 12.1675 32 13.1406 32C13.847 31.9999 14.4815 31.5071 14.6337 30.7884L16.2473 23.1693C16.3068 22.8883 16.2859 22.5963 16.187 22.3267L14.6573 18.156L14.898 15.2275C12.4179 14.5599 13.3053 14.7988 12.5249 14.5887C12.0118 14.4506 11.6495 14.0299 11.5591 13.5401L10.8983 9.92258L12.5261 13.0343C12.6909 13.3494 12.98 13.5811 13.3233 13.6736L18.1155 14.9636C18.792 15.1461 19.4925 14.7463 19.6758 14.0651C19.8588 13.3858 19.4565 12.6872 18.7776 12.5044Z" fill="black"/>
</g>
<defs>
<clipPath id="clip0_48_977">
<rect width="32" height="32" fill="white"/>
</clipPath>
</defs>
</svg>
