<svg width="32" height="32" viewBox="0 0 32 32" fill="none" xmlns="http://www.w3.org/2000/svg">
<g clip-path="url(#clip0_54_2088)">
<path d="M0 16V32H16H32V16V0H16H0V16Z" fill="#007ACC"/>
<path d="M7.07638 16.1062L7.06622 17.4167H9.14876H11.2313L11.2313 23.3341V29.2516H12.7043H14.1773V23.3341L14.1773 17.4167H16.2599H18.3424V16.1316C18.3424 15.4205 18.3272 14.8262 18.3069 14.811C18.2916 14.7906 15.757 14.7805 12.684 14.7856L7.09161 14.8008L7.07638 16.1062Z" fill="white"/>
<path d="M25.8209 14.7636C26.6336 14.9668 27.2532 15.3274 27.8221 15.9166C28.1167 16.2315 28.5536 16.8055 28.5891 16.9426C28.5993 16.9833 27.2075 17.9179 26.3643 18.441C26.3339 18.4614 26.212 18.3293 26.0748 18.1261C25.6634 17.5268 25.2316 17.2677 24.5713 17.222C23.6012 17.156 22.9764 17.6639 22.9815 18.5122C22.9815 18.761 23.017 18.9083 23.1186 19.1115C23.332 19.5534 23.7282 19.8176 24.9726 20.356C27.2634 21.3414 28.2437 21.9915 28.8532 22.916C29.5339 23.9471 29.6863 25.5928 29.224 26.8169C28.7161 28.1477 27.4564 29.0518 25.6837 29.3515C25.1351 29.448 23.8348 29.4328 23.2456 29.3261C21.9605 29.0976 20.7415 28.4626 19.9897 27.6296C19.6951 27.3045 19.1212 26.4563 19.1567 26.3953C19.172 26.375 19.304 26.2937 19.4513 26.2074C19.5936 26.1261 20.132 25.8163 20.6399 25.5217L21.5593 24.9883L21.7523 25.2728C22.0215 25.6842 22.6107 26.248 22.9663 26.436C23.9872 26.9744 25.3891 26.8982 26.0799 26.2785C26.3745 26.0093 26.4964 25.7299 26.4964 25.3185C26.4964 24.9477 26.4507 24.7852 26.2577 24.5058C26.0088 24.1502 25.5009 23.8506 24.0583 23.2258C22.4075 22.5147 21.6964 22.0728 21.0463 21.3718C20.6704 20.9655 20.3148 20.3153 20.1675 19.7718C20.0456 19.3198 20.0151 18.1871 20.1116 17.7299C20.452 16.135 21.6558 15.0226 23.3929 14.6925C23.9567 14.5858 25.2672 14.6264 25.8209 14.7636Z" fill="white"/>
</g>
<defs>
<clipPath id="clip0_54_2088">
<rect width="32" height="32" fill="white"/>
</clipPath>
</defs>
</svg>
