<svg width="243" height="51" viewBox="0 0 243 51" fill="none" xmlns="http://www.w3.org/2000/svg">
<g clip-path="url(#clip0_80_994)">
<path d="M73.442 15.9381C70.39 15.9381 68.864 16.9461 68.864 18.9621C68.864 19.8581 69.242 20.5441 69.998 21.0201C70.754 21.4961 72.524 22.1841 75.31 23.0781C78.096 23.9741 80.05 24.9901 81.17 26.1221C82.29 27.2561 82.85 28.9981 82.85 31.3521C82.85 34.3481 81.94 36.6161 80.12 38.1541C78.298 39.6961 75.92 40.4641 72.98 40.4641C70.796 40.4641 68.122 40.1281 64.958 39.4561L63.446 39.1621L64.034 34.6681C67.786 35.1741 70.656 35.4261 72.644 35.4261C75.612 35.4261 77.096 34.1941 77.096 31.7281C77.096 30.8341 76.754 30.1321 76.066 29.6281C75.378 29.1241 74.016 28.5781 71.972 27.9901C68.724 27.0661 66.434 25.9681 65.104 24.6941C63.774 23.4201 63.108 21.6501 63.108 19.3801C63.108 16.5241 63.976 14.3961 65.712 12.9961C67.448 11.5961 69.828 10.8961 72.852 10.8961C74.924 10.8961 77.556 11.1761 80.748 11.7361L82.26 12.0301L81.8 16.6121C77.852 16.1641 75.066 15.9381 73.442 15.9381Z" fill="#555555"/>
<path d="M92.6361 39.962H87.0081V10.562H92.6361V27.278L94.7781 26.9L98.9361 18.962H105.236L99.7761 28.916L105.53 39.962H99.1881L94.9461 31.772L92.6361 32.148V39.962Z" fill="#555555"/>
<path d="M113.91 34.6501C114.568 35.2241 115.512 35.5121 116.744 35.5121C119.348 35.5121 121.672 35.4281 123.716 35.2601L124.894 35.1341L124.976 39.2921C121.756 40.0761 118.844 40.4681 116.24 40.4681C113.076 40.4681 110.78 39.6281 109.352 37.9481C107.924 36.2681 107.21 33.5381 107.21 29.7581C107.21 22.2261 110.304 18.4601 116.492 18.4601C122.596 18.4601 125.648 21.6241 125.648 27.9521L125.23 31.8581H112.88C112.908 33.1441 113.25 34.0761 113.91 34.6501ZM120.104 27.5721C120.104 25.8921 119.838 24.7241 119.306 24.0661C118.774 23.4081 117.842 23.0801 116.514 23.0801C115.182 23.0801 114.246 23.4221 113.7 24.1081C113.154 24.7941 112.866 25.9501 112.838 27.5721H120.104Z" fill="#555555"/>
<path d="M141.314 23.75H136.148V32.36C136.148 33.2 136.17 33.796 136.21 34.146C136.252 34.496 136.406 34.796 136.672 35.048C136.938 35.3 137.35 35.426 137.91 35.426L141.102 35.342L141.354 39.834C139.478 40.256 138.052 40.464 137.07 40.464C134.55 40.464 132.828 39.898 131.904 38.762C130.98 37.63 130.518 35.536 130.518 32.482V23.746H128.042V18.962H130.518V13.124H136.146V18.962H141.312L141.314 23.75Z" fill="#555555"/>
<path d="M152.822 18.458C154.28 18.458 156.14 18.682 158.41 19.13L159.542 19.382L159.374 23.834C157.162 23.61 155.524 23.498 154.46 23.498C152.528 23.498 151.248 23.912 150.618 24.738C149.988 25.564 149.672 27.124 149.672 29.42C149.672 31.716 149.986 33.294 150.618 34.146C151.246 35 152.542 35.428 154.502 35.428L159.374 35.092L159.542 39.584C156.546 40.174 154.264 40.466 152.696 40.466C149.588 40.466 147.354 39.59 145.996 37.842C144.638 36.094 143.958 33.286 143.958 29.42C143.958 25.556 144.658 22.764 146.058 21.042C147.458 19.32 149.714 18.458 152.822 18.458Z" fill="#555555"/>
<path d="M169.328 39.962H163.7V10.562H169.328V19.97C171.26 18.962 172.996 18.458 174.536 18.458C177.336 18.458 179.268 19.284 180.332 20.936C181.394 22.588 181.928 25.136 181.928 28.58V39.962H176.3V28.706C176.3 26.942 176.092 25.634 175.672 24.78C175.252 23.926 174.412 23.498 173.152 23.498C172.06 23.498 170.966 23.666 169.874 24.002L169.33 24.17L169.328 39.962Z" fill="#555555"/>
<path d="M193.562 23.7501V39.9621H187.934V23.7501H185.666V18.9621H187.934V18.0401C187.934 15.0161 188.382 12.9301 189.278 11.7821C190.174 10.6341 191.77 10.0601 194.068 10.0601C195.076 10.0601 196.378 10.2001 197.974 10.4801L198.854 10.6061L198.77 15.1841C197.538 15.1281 196.502 15.1001 195.662 15.1001C194.822 15.1001 194.262 15.3241 193.982 15.7721C193.7 16.2201 193.562 16.9901 193.562 18.0821V18.9641H198.644V23.7521H193.562V23.7501Z" fill="#555555"/>
<path d="M218.006 25.514V34.25C218.062 34.924 218.174 35.392 218.342 35.658C218.51 35.924 218.86 36.114 219.392 36.224L219.224 40.466C217.796 40.466 216.654 40.368 215.8 40.174C214.946 39.976 214.086 39.584 213.218 38.996C211.202 39.976 209.144 40.466 207.044 40.466C202.702 40.466 200.534 38.172 200.534 33.578C200.534 31.34 201.136 29.75 202.338 28.812C203.544 27.874 205.39 27.32 207.882 27.152L212.376 26.816V25.514C212.376 24.646 212.178 24.052 211.788 23.728C211.396 23.406 210.764 23.246 209.898 23.246L202.002 23.582L201.834 19.676C204.83 18.864 207.68 18.458 210.38 18.458C213.084 18.458 215.028 19.018 216.218 20.138C217.412 21.258 218.006 23.052 218.006 25.514ZM208.556 31.058C206.988 31.198 206.204 32.038 206.204 33.578C206.204 35.12 206.89 35.888 208.26 35.888C209.324 35.888 210.486 35.72 211.746 35.384L212.376 35.216V30.722L208.556 31.058Z" fill="#555555"/>
<path d="M233.544 18.458C236.484 18.458 238.634 19.262 239.992 20.874C241.35 22.486 242.03 25.362 242.03 29.506C242.03 33.648 241.246 36.512 239.678 38.094C238.11 39.676 235.406 40.468 231.572 40.468C230.366 40.468 228.17 40.328 224.976 40.048L223.38 39.88V10.562H229.008V19.592C230.8 18.836 232.312 18.458 233.544 18.458ZM231.572 35.428C233.448 35.428 234.706 34.972 235.352 34.062C235.998 33.152 236.316 31.52 236.316 29.168C236.316 25.388 235.14 23.5 232.788 23.5C231.668 23.5 230.604 23.64 229.596 23.92L229.008 24.046V35.26C230.296 35.372 231.15 35.428 231.572 35.428Z" fill="#555555"/>
<path d="M25.5 2.16602C12.612 2.16602 2.16797 12.614 2.16797 25.5C2.16797 38.386 12.612 48.834 25.5 48.834C38.388 48.834 48.834 38.386 48.834 25.5C48.834 12.614 38.388 2.16602 25.5 2.16602Z" fill="white"/>
<path d="M25.5 0.442017C11.692 0.442017 0.5 11.636 0.5 25.444C0.5 39.252 11.692 50.446 25.5 50.446C39.308 50.446 50.5 39.252 50.5 25.444C50.502 11.636 39.31 0.442017 25.5 0.442017ZM23.328 40.322L12.55 34.1V21.548L23.328 27.37V40.322ZM25.248 24.416L12.496 17.656L25.248 10.292L38.002 17.656L25.248 24.416ZM38.01 34.124L27.272 40.324V27.42L38.01 21.618V34.124Z" fill="#1CAAD9"/>
</g>
<defs>
<clipPath id="clip0_80_994">
<rect width="242" height="50" fill="white" transform="translate(0.5 0.5)"/>
</clipPath>
</defs>
</svg>
