<svg width="255" height="50" viewBox="0 0 255 50" fill="none" xmlns="http://www.w3.org/2000/svg">
<g clip-path="url(#clip0_80_1009)">
<mask id="mask0_80_1009" style="mask-type:luminance" maskUnits="userSpaceOnUse" x="0" y="0" width="255" height="50">
<path d="M0 0.000425146V50H254.554V0.000425146H0Z" fill="white"/>
</mask>
<g mask="url(#mask0_80_1009)">
<path d="M70.2834 25.8794L72.7255 23.437H67.7238V17.4991H65.0823V36.2487C65.0823 38.9271 66.6235 41.0922 69.7057 41.0922H71.5768V38.8173H70.1825C68.4946 38.8173 67.7238 37.8264 67.7238 36.1753V25.8794H70.2834ZM207.066 35.4283V14.9509H202.373V35.7173C202.373 38.3886 203.998 41.0958 207.86 41.0958H210.531V37.1249H208.726C207.535 37.1249 207.066 36.5476 207.066 35.4283ZM249.609 22.2893L246.576 33.9127L242.714 22.2893H239.285L235.459 33.9127L232.427 22.2893H227.445L233.221 41.0958H237.083L241.017 29.2922L244.952 41.0958H248.814L254.554 22.2893H249.609ZM221.664 36.2586C221.122 36.8002 220.4 37.089 219.462 37.089C218.523 37.089 217.837 36.8002 217.296 36.2586C216.321 35.2845 216.213 33.6237 216.213 31.6747C216.213 29.725 216.321 28.1007 217.296 27.1265C217.837 26.585 218.523 26.2962 219.462 26.2962C220.4 26.2962 221.122 26.585 221.664 27.1265C222.638 28.1007 222.747 29.725 222.747 31.6747C222.747 33.6237 222.638 35.2845 221.664 36.2586ZM219.462 22.0728C216.682 22.0728 214.805 23.1555 213.65 24.3828C211.953 26.1517 211.52 28.2816 211.52 31.6747C211.52 35.1035 211.953 37.2335 213.65 39.0023C214.805 40.2295 216.682 41.3124 219.462 41.3124C222.241 41.3124 224.154 40.2295 225.309 39.0023C227.006 37.2335 227.439 35.1035 227.439 31.6747C227.439 28.2816 227.006 26.1517 225.309 24.3828C224.154 23.1555 222.241 22.0728 219.462 22.0728ZM191.984 20.3289V41.0766H196.677V26.2488H200.142V22.6754H196.677V20.6178C196.677 19.5349 197.218 18.9213 198.337 18.9213H200.142V14.9509H197.471C193.644 14.9509 191.984 17.658 191.984 20.3289ZM181.36 24.094V22.2893H176.776V41.0958H181.468V29.7615C181.468 27.379 183.057 26.2962 184.501 26.2962C185.656 26.2962 186.254 26.6801 186.977 27.4019L190.529 23.8415C189.229 22.5419 187.93 22.0728 186.089 22.0728C184.067 22.0728 182.262 23.0112 181.36 24.094ZM162.671 29.9418C162.706 29.1113 162.815 28.6064 163.104 27.9204C163.609 26.8012 164.656 25.9714 166.244 25.9714C167.832 25.9714 168.879 26.8012 169.385 27.9204C169.673 28.6064 169.782 29.1113 169.818 29.9418H162.671ZM166.244 22.0728C161.371 22.0728 158.05 25.5379 158.05 31.6747C158.05 39.2912 162.309 41.3124 166.749 41.3124C170.143 41.3124 171.984 40.2655 173.897 38.3521L171.045 35.5728C169.854 36.7642 168.843 37.3415 166.786 37.3415C164.15 37.3415 162.671 35.5728 162.671 33.1546H174.438V31.0611C174.438 25.8992 171.478 22.0728 166.244 22.0728ZM153.316 22.2893L149.526 33.9127L145.7 22.2893H140.754L147.685 41.0958H151.367L158.261 22.2893H153.316ZM135.045 36.2586C134.504 36.8002 133.781 37.089 132.843 37.089C131.905 37.089 131.219 36.8002 130.677 36.2586C129.702 35.2845 129.594 33.6237 129.594 31.6747C129.594 29.725 129.702 28.1007 130.677 27.1265C131.219 26.585 131.905 26.2962 132.843 26.2962C133.781 26.2962 134.504 26.585 135.045 27.1265C136.019 28.1007 136.128 29.725 136.128 31.6747C136.128 33.6237 136.019 35.2845 135.045 36.2586ZM132.843 22.0728C130.064 22.0728 128.187 23.1555 127.032 24.3828C125.335 26.1517 124.902 28.2816 124.902 31.6747C124.902 35.1035 125.335 37.2335 127.032 39.0023C128.187 40.2295 130.064 41.3124 132.843 41.3124C135.622 41.3124 137.535 40.2295 138.691 39.0023C140.387 37.2335 140.82 35.1035 140.82 31.6747C140.82 28.2816 140.387 26.1517 138.691 24.3828C137.535 23.1555 135.622 22.0728 132.843 22.0728ZM120.431 23.0128H117.138L108.952 30.9817L108.965 14.967H106.323V41.0922H108.965L108.952 34.5034L112.157 31.2873L118.212 41.0922H121.477L113.987 29.4573L120.431 23.0128ZM97.8044 25.1679C99.5288 25.1679 100.593 25.6813 101.951 27.1855C101.951 27.1855 103.719 25.4665 103.705 25.4509C101.853 23.4695 100.28 22.8194 97.8044 22.8194C93.2545 22.8194 89.8054 25.9015 89.8054 32.0661C89.8054 38.2298 93.2545 41.3124 97.8044 41.3124C100.3 41.3124 101.877 40.6516 103.748 38.634L101.951 36.9095C100.593 38.4138 99.5288 38.9641 97.8044 38.9641C96.0431 38.9641 94.5754 38.2669 93.6214 36.9095C92.7773 35.7354 92.4472 34.3408 92.4472 32.0661C92.4472 29.7912 92.7773 28.3966 93.6214 27.2225C94.5754 25.8645 96.0431 25.1679 97.8044 25.1679ZM84.8155 34.7073C84.8155 36.2123 84.5216 37.2396 83.898 37.8264C82.7603 38.9271 81.4029 39.0375 79.8618 39.0375C76.9997 39.0375 75.7157 38.0467 75.7157 35.9549C75.7157 33.8639 77.0366 32.7632 79.7519 32.7632H84.8155V34.7073ZM80.2291 22.8194C77.3327 22.8194 75.5082 23.3908 73.9094 25.4148C73.8874 25.4423 75.6423 27.149 75.6423 27.149C76.7066 25.6448 77.8808 25.0943 80.1922 25.0943C83.4946 25.0943 84.8155 26.4155 84.8155 29.0569V30.7814H79.385C75.3487 30.7814 73.1472 32.8366 73.1472 35.992C73.1472 37.4229 73.6244 38.7803 74.5046 39.6613C75.6423 40.8355 77.11 41.3124 79.6051 41.3124C82.0269 41.3124 83.3474 40.8355 84.8155 39.3677V41.0922H87.457V28.8367C87.457 24.9106 85.0722 22.8194 80.2291 22.8194ZM57.6373 30.9282L54.7383 30.6715C52.4638 30.4882 51.5832 29.5708 51.5832 28.0296C51.5832 26.1951 52.9771 25.0576 55.6194 25.0576C57.4905 25.0576 59.1419 25.498 60.4255 26.4882L62.1507 24.7638C60.5358 23.4433 58.2244 22.8194 55.6559 22.8194C51.8029 22.8194 49.0146 24.8007 49.0146 28.103C49.0146 31.0752 50.8858 32.6528 54.4083 32.9464L57.3806 33.2031C59.4719 33.387 60.3895 34.2674 60.3895 35.8452C60.3895 37.9731 58.5548 39.0375 55.5825 39.0375C53.3444 39.0375 51.3995 38.4502 49.9682 36.946L48.2074 38.7074C50.1888 40.6153 52.5737 41.3124 55.6194 41.3124C59.9856 41.3124 62.9576 39.2941 62.9576 35.8088C62.9576 32.4324 60.7929 31.222 57.6373 30.9282Z" fill="#212325"/>
<path d="M35.663 45.5383V32.1545H40.124V50H0V32.1545H4.46102V45.5383H35.663Z" fill="#BCBBBC"/>
<path d="M8.927 41.0767H31.2321V36.6156H8.927V41.0767ZM28.9179 0.000437312L25.3384 2.66269L38.6504 20.5601L42.2299 17.8978L28.9179 0.000437312ZM17.8535 10.5519L34.993 24.8263L37.8479 21.3982L20.7084 7.12396L17.8535 10.5519ZM12.2581 20.4716L32.478 29.8885L34.3614 25.8445L14.1415 16.4277L12.2581 20.4716ZM9.36995 30.9234L31.1983 35.5111L32.1158 31.1453L10.2874 26.5577L9.36995 30.9234Z" fill="#F48023"/>
</g>
</g>
<defs>
<clipPath id="clip0_80_1009">
<rect width="254.556" height="50" fill="white"/>
</clipPath>
</defs>
</svg>
