<svg width="220" height="51" viewBox="0 0 220 51" fill="none" xmlns="http://www.w3.org/2000/svg">
<g clip-path="url(#clip0_80_974)">
<path d="M109.754 13C101.261 13 95.1384 18.5384 95.1384 26.8461C95.1384 35.1538 102.031 40.6923 110.523 40.6923C115.654 40.6923 120.177 38.6615 122.977 35.2384L117.092 31.8384C115.538 33.5384 113.177 34.5308 110.523 34.5308C106.838 34.5308 103.708 32.6077 102.546 29.5308H124.1C124.269 28.6692 124.369 27.7769 124.369 26.8384C124.369 18.5384 118.246 13 109.754 13ZM102.477 24.1538C103.438 21.0846 106.069 19.1538 109.746 19.1538C113.431 19.1538 116.061 21.0846 117.015 24.1538H102.477ZM192.585 13C184.092 13 177.969 18.5384 177.969 26.8461C177.969 35.1538 184.861 40.6923 193.354 40.6923C198.485 40.6923 203.008 38.6615 205.808 35.2384L199.923 31.8384C198.369 33.5384 196.008 34.5308 193.354 34.5308C189.669 34.5308 186.538 32.6077 185.377 29.5308H206.931C207.1 28.6692 207.2 27.7769 207.2 26.8384C207.2 18.5384 201.077 13 192.585 13ZM185.315 24.1538C186.277 21.0846 188.908 19.1538 192.585 19.1538C196.269 19.1538 198.9 21.0846 199.854 24.1538H185.315ZM155.292 26.8461C155.292 31.4615 158.308 34.5384 162.985 34.5384C166.154 34.5384 168.531 33.1 169.754 30.7538L175.661 34.1615C173.215 38.2384 168.631 40.6923 162.985 40.6923C154.485 40.6923 148.369 35.1538 148.369 26.8461C148.369 18.5384 154.492 13 162.985 13C168.631 13 173.208 15.4538 175.661 19.5308L169.754 22.9384C168.531 20.5923 166.154 19.1538 162.985 19.1538C158.315 19.1538 155.292 22.2308 155.292 26.8461ZM218.738 4.53844V39.9231H211.815V4.53844H218.738ZM29.6846 0.692291L58.1076 49.9231H1.26147L29.6846 0.692291ZM100.746 4.53844L79.4307 41.4615L58.1153 4.53844H66.1076L79.4307 27.6154L92.7538 4.53844H100.746ZM146.061 13.7692V21.2231C145.292 21 144.477 20.8461 143.6 20.8461C139.131 20.8461 135.908 23.9231 135.908 28.5384V39.9231H128.985V13.7692H135.908V20.8461C135.908 16.9384 140.454 13.7692 146.061 13.7692Z" fill="black"/>
</g>
<defs>
<clipPath id="clip0_80_974">
<rect width="218.462" height="50" fill="white" transform="translate(0.769287 0.5)"/>
</clipPath>
</defs>
</svg>
