<svg width="224" height="51" viewBox="0 0 224 51" fill="none" xmlns="http://www.w3.org/2000/svg">
<g clip-path="url(#clip0_80_960)">
<path d="M69.9464 7.95884C69.1234 4.88382 66.7066 2.46731 63.6316 1.64417C58.0639 0.150757 35.7272 0.150757 35.7272 0.150757C35.7272 0.150757 13.3908 0.150757 7.82283 1.64417C4.74784 2.46731 2.33132 4.88382 1.50818 7.95884C0.014771 13.5268 0.0147705 25.1507 0.0147705 25.1507C0.0147705 25.1507 0.014771 36.7747 1.50818 42.3427C2.33132 45.4177 4.74784 47.8342 7.82283 48.6572C13.3908 50.1507 35.7272 50.1507 35.7272 50.1507C35.7272 50.1507 58.0639 50.1507 63.6316 48.6572C66.7066 47.8342 69.1234 45.4177 69.9464 42.3427C71.4399 36.7747 71.4399 25.1507 71.4399 25.1507C71.4399 25.1507 71.4339 13.5268 69.9464 7.95884Z" fill="#FF0000"/>
<path d="M28.578 35.864L47.134 25.1516L28.578 14.4389V35.864Z" fill="white"/>
<path d="M86.5207 32.6595L78.501 3.69675H85.4977L88.3082 16.8258C89.0255 20.0596 89.5487 22.8171 89.8897 25.0984H90.0954C90.3307 23.4639 90.86 20.724 91.6772 16.8729L94.5874 3.69675H101.584L93.4644 32.6595V46.553H86.515V32.6595H86.5207Z" fill="#282828"/>
<path d="M103.689 45.6348C102.278 44.6823 101.272 43.2005 100.673 41.1898C100.079 39.179 99.7792 36.5098 99.7792 33.17V28.625C99.7792 25.2561 100.12 22.5457 100.802 20.5055C101.484 18.4653 102.548 16.9718 103.995 16.037C105.441 15.1021 107.34 14.6318 109.692 14.6318C112.009 14.6318 113.861 15.108 115.26 16.0605C116.653 17.013 117.676 18.5064 118.323 20.529C118.97 22.5574 119.293 25.2561 119.293 28.625V33.17C119.293 36.5098 118.976 39.1908 118.347 41.2133C117.718 43.2418 116.695 44.7235 115.283 45.6583C113.872 46.5933 111.956 47.0635 109.539 47.0635C107.046 47.0693 105.1 46.5873 103.689 45.6348ZM111.603 40.7313C111.991 39.7083 112.191 38.0443 112.191 35.7278V25.9736C112.191 23.7275 111.997 22.0812 111.603 21.0464C111.209 20.0057 110.521 19.4883 109.533 19.4883C108.581 19.4883 107.905 20.0057 107.517 21.0464C107.123 22.0871 106.929 23.7275 106.929 25.9736V35.7278C106.929 38.0443 107.117 39.714 107.493 40.7313C107.869 41.7543 108.545 42.2658 109.533 42.2658C110.521 42.2658 111.209 41.7543 111.603 40.7313Z" fill="#282828"/>
<path d="M142.053 46.559H136.538L135.927 42.7255H135.774C134.274 45.6183 132.028 47.0645 129.03 47.0645C126.954 47.0645 125.42 46.3825 124.432 45.0245C123.444 43.6603 122.95 41.532 122.95 38.6393V15.2443H130V38.2275C130 39.627 130.153 40.6205 130.459 41.2145C130.764 41.8083 131.276 42.108 131.993 42.108C132.605 42.108 133.193 41.92 133.757 41.5438C134.322 41.1673 134.733 40.691 135.009 40.115V15.2385H142.053V46.559Z" fill="#282828"/>
<path d="M161.203 9.36954H154.207V46.5578H147.31V9.36954H140.313V3.70163H161.203V9.36954Z" fill="#282828"/>
<path d="M178.206 46.559H172.691L172.08 42.7255H171.927C170.428 45.6183 168.182 47.0645 165.183 47.0645C163.108 47.0645 161.573 46.3825 160.586 45.0245C159.598 43.6603 159.104 41.532 159.104 38.6393V15.2443H166.153V38.2275C166.153 39.627 166.306 40.6205 166.612 41.2145C166.918 41.8083 167.429 42.108 168.147 42.108C168.758 42.108 169.346 41.92 169.91 41.5438C170.475 41.1673 170.886 40.691 171.163 40.115V15.2385H178.206V46.559Z" fill="#282828"/>
<path d="M201.537 20.2473C201.108 18.2718 200.42 16.843 199.467 15.9552C198.515 15.0674 197.204 14.6265 195.534 14.6265C194.24 14.6265 193.029 14.991 191.906 15.7259C190.783 16.4609 189.913 17.4192 189.301 18.6128H189.249V2.11472H182.458V46.5525H188.279L188.996 43.5893H189.149C189.695 44.6475 190.513 45.4765 191.6 46.094C192.688 46.7055 193.899 47.0113 195.228 47.0113C197.609 47.0113 199.367 45.9118 200.49 43.7185C201.613 41.5195 202.178 38.0918 202.178 33.4235V28.467C202.178 24.9686 201.96 22.2229 201.537 20.2473ZM195.075 33.0235C195.075 35.3048 194.981 37.0923 194.793 38.3858C194.605 39.6793 194.293 40.6025 193.846 41.1433C193.405 41.69 192.806 41.9605 192.059 41.9605C191.477 41.9605 190.942 41.8253 190.448 41.549C189.954 41.2785 189.554 40.867 189.249 40.326V22.5521C189.484 21.6996 189.896 21.0058 190.477 20.459C191.054 19.9122 191.689 19.6417 192.365 19.6417C193.082 19.6417 193.635 19.9239 194.023 20.4825C194.417 21.0469 194.687 21.9877 194.84 23.3165C194.993 24.6452 195.069 26.5326 195.069 28.9843V33.0235H195.075Z" fill="#282828"/>
<path d="M212.179 34.8285C212.179 36.8393 212.237 38.3445 212.355 39.35C212.473 40.3553 212.72 41.0845 213.096 41.549C213.472 42.0075 214.048 42.2368 214.83 42.2368C215.883 42.2368 216.612 41.8253 217 41.008C217.394 40.1908 217.606 38.8268 217.641 36.9218L223.72 37.2803C223.756 37.5508 223.773 37.927 223.773 38.4033C223.773 41.296 222.979 43.4598 221.398 44.8885C219.816 46.3173 217.576 47.0345 214.683 47.0345C211.209 47.0345 208.774 45.9468 207.381 43.7655C205.982 41.5843 205.288 38.2153 205.288 33.6525V28.1846C205.288 23.4869 206.011 20.0532 207.457 17.8895C208.904 15.7258 211.379 14.644 214.889 14.644C217.306 14.644 219.164 15.085 220.457 15.9728C221.751 16.8606 222.662 18.2364 223.191 20.112C223.72 21.9876 223.985 24.5746 223.985 27.8788V33.241H212.179V34.8285ZM213.072 20.0708C212.714 20.5118 212.479 21.235 212.355 22.2404C212.237 23.2458 212.179 24.7686 212.179 26.8148V29.0608H217.335V26.8148C217.335 24.8039 217.265 23.2811 217.129 22.2404C216.994 21.1997 216.747 20.4706 216.388 20.0414C216.03 19.6181 215.477 19.4006 214.73 19.4006C213.978 19.4064 213.425 19.6299 213.072 20.0708Z" fill="#282828"/>
</g>
<defs>
<clipPath id="clip0_80_960">
<rect width="223.97" height="50" fill="white" transform="translate(0.0150146 0.150513)"/>
</clipPath>
</defs>
</svg>
